<svg xmlns="http://www.w3.org/2000/svg" id="Layer_1" viewBox="0 0 1483 834"><defs><style>.cls-1{fill:#5b6169}.cls-2{fill:#17191d}.cls-3{fill:#fff}</style></defs><path d="M1208.02 446.19c.66-1.97 3.12-1.64 4.66-2.43 7.49-3.83 15.21-4.93 23.43-2.83l5.66.23 16.91 5.41c2.12.68 2.7 5.33 1.91 7.32-.69 1.74-2.19 4.31-4.48 5.34l-13.67 6.17c-2.97 1.34-5.84 2.52-7.47 5.25 5.94 4.86 18.62 2.57 25.21 8.86 3.19 3.04-.82 7.94-1.97 10.47l1.47 13.38c.42 3.82.37 8.5-1.56 11.89l-5.67 9.96c-2.14 8.7-12.65 16.78-22.3 13.65-2.5-.81-4.48-1.05-6.34-2.71.06-.81.57-1.28 1.2-1.2.58.67 1.5 1.65 3.12.67-.87-.89-2.04-.77-3.12-.67-.28-2.03-1.18-5.23-3.59-6.16-2.79-1.08-5.97-.8-8.43-.39 1.31.58 1.92.88 2.21 1.88l-12.14-3.35c-2.66-.73-4.42-1.01-6.24.32-2.02 1.49-2.64 2.92-2.85 5.77-.57 7.59-7.22 13.81-14.98 11.8-1.27.79-2.43-.38-1.83-1.46 3.43 1.59 8.86 2.13 10.94-2.54-4.15 2.03-7.62 2-10.73-1.23l-4.3-4.47 2.13-5.17c1.98-4.8 8.5-2.01 10.67-4.62 1.27-1.52 1.85-4.07.56-5.38-5.52 1.96-11.39 4.52-15.35 7.72-.89.66-3.3-.88-4.27 1.44l5.72.08c-2.28 5.42-1.3 11.42 4.06 13.91-5.07-.55-7.72-6.31-6.37-12.47l-21.47 8.24-13.14 5.87-14.59 6.42-8.04 3.23c.14-1 1.99-.79 1.98-2.84l-10.1 3.99c1.81 1.08 3.07.27 4.26.51-5.01 3.73-16.73 4.45-21.3.75 1.4.09 3.51.94 4.13-1.2-4.52-.7-7.41-1.74-11.44-4.14-.59 2.54 1.91 2.52 2.67 3.47-4.62-.8-10.12-3.57-12.83-8.1-1.2-2.48-.41-6.66.26-9.2.69-1.06 1.59-2.03.95-2.68-.87-.89-1.83-1.01-2.88-.99 4.66-2.18 9.3-4.79 14.36-6.02.14.9.15 2.31-.54 3.03-.75.78-2 1-3.63 1.48 2.18 1.86 4.41-.06 6.65-.79 3.49-1.15 6.93-.94 10.23-4.1l-10.78-1.7-8.73-3.89c-1.23 1-2.29 2.99-3.81 3.43l-18.41 5.41-9.54 1.41-12.47 1.71-13.23-.09-20.41 12.35-7.04 3.07-10.61 4.04c-4.05 1.54-8.38 3.15-12.65 3.7l-11.05 1.42-22.06-.32c-2.88-.04-7.17-.24-9.88-.99l-10.49-2.89c-6.27-1.73-22.96-11.43-26.21-17.78 2.45-2.8 3.95-6.47 5.31-9.71l9.46-22.55c-.22.53 5.29-22.7 5.21-21.38l1.7-27.84c.27-4.38.17-9-1.29-12.46l2.22-.39 1.16-.09h.61l1.52.91c2.16 1.28 5.08 1.45 7.64 2.25l37.15 11.57c3.23 1.01 6.86-.46 8.95 3.35 1.44 2.62 4.67 2.66 7.2 3.67l9.49 3.78 11.32 5.54c7.42 3.63 14.66 7.93 23.02 9.58l9.03-.97c4.06-.44 7.69-3.55 10.86-5.87 4.41-3.23 8.42-4.53 12.95-7.38l13.2-8.3c.64-.4 1.9-.31 2.29-.1.36.2.55 1.26.47 1.88-.2 1.63 1.01 1.77 1.62 1.74.36-.02 1.31.12 1.61-.22-.46.53-1.09-12.35-5.2-16.17-2.58-2.4-3.74-3.9-5.51-6.9-2.46-4.16-7.24-7.47-10.6-11l-9.9-10.41c3.12-2.35 8.92 4.29 16.78 1.58 3.33-1.15 5.24-.89 8.51-1.45l8.28-1.41c1.25-1.18 1.53-2.22 1.09-2.79-.72-.94-2.19-1.35-3.36-.39-.64.53-1.08 1.31-1.36 1.96-.25.61-2.29-.19-2.95-.12l-11.78 1.19c-3.7.38-6.88 3.21-10.41-.44-1.43-.55-4.5-.05-5.95.09-8.66-6.18-18.83-9.85-28.71-14.24l-15.11-6.7-24-9.03-27.38-8.9c-3.91-1.27-8.12-3.23-12.57-3.23-1.85 0-4.19-3.05-6.91-1.59-.8.43-2.78-.5-2.82-1.22l-.16-3.11c2.28.1 2.4-1.9 3.54-3.49l12.63-17.5 11.09-12.91c10.67-12.41 21.42-23.67 35.08-32.96 9.12-6.21 18.7-12.25 29.54-15.09 4.6-1.21 9.45-3.11 13.98-3.28s7.44-.05 11.62-1.42c2.78-.91 11.2-1.72 18.73-2.94l24.63-4.01c6.66-1.08 12.87-2.3 19.15-3.53l19.85-3.88c3.03-.59 4.7-.65 7.52-1.62 3.67-1.26 10.28-1.22 17.85-3.1l7.25-1.8 14.07-2.34 7.26-1.65 17.28-3.1c5.17-.93 10.24-2.08 15.77-3.28l7.07-1.54c5.79-1.26 10.99-2.23 16.86-3.48l7.12-1.51c5.9-1.25 10.96-2.39 16.62-3.53l8.26-1.66 14.86-3.26 7.25-1.66c5.8-1.33 11.83-3.21 17.18-3.05.54-2.33 3.49-1.3 4.71-1.56l16.82-3.61c1.96-.42 3.75-1.11 6.46-1.65l12.74-2.58c2.8-.57 4.24-1.07 6.43-1.63l12.75-3.28 7.95-1.85 8.54-1.86 13.71-3.83c5.16 2.88 5.05 16.36 1.96 23.4-1.58 3.6-2.71 7.09-6.95 9.38.67 3.08-.71 5.59-3.74 5.93-9.2 10.4-20.91 16.55-34.05 20.26l-6.14 1.73-14.53 4.79-27.61 7.36-8.01 1.96-14.8 3.25-6.34 1.51-13.85 2.6c-3.37.63-5.39 1.21-8.47 1.63l-10.55 1.43-9.11 1.7-12.18 1.46c-6.53.78-12.74 2.04-17.44 2.25l-9.35.43-22.09 1.07-13.89-.02c-8.67-.01-16.91-.53-25.53-.21l-23.1.87-16.64.83c5.37 3.46 11.12 1.16 16.4.91 9.79-.45 20.09-.71 30.12.43 5.71.65 11.4-.26 17.27-.38l24.43-.48 18.08-.86c3.93-.19 7.77-1.83 12.02-.79-1.27 13.38-9.15 25.21-21.42 30.62-8.73 3.85-17.01 6.42-26.62 5.14-4.36 2.53-9.26 2.16-13.23-.95l-25.85-.83-14.03-.81-24.05.09 14.11 1.49 14.51.59c2.58.1 2.8 1.04 5.54.8 19.02-1.66 30.34 3.54 33.91 2.77 1.03-.22 3.01.66 3.35 1.46.31.75-1.63 2.4-1.68 3.36-.36 6.47-4 12.52-8.2 17.57-2.19 2.63-3.3 4.91-6.32 6.84-5.55 3.55-11.01 5.75-17.7 6.43-1.9.19-3.72 1.77-6.6 1.46l-15.49-1.65c-5.3-2.19-18.2-2.62-26.4-2.25 2 3.79 11.48-.16 20 3.75 2.73 1.25 3.96 1.13 7.09 1.19l23.95.45c5.2-.99 10.78-2.75 15.16-5.63l6.53-4.3c8.16-7.43 11.82-17.5 13.78-28.16 4.65 1.7 8.42-.49 11.91-.88 13.86-1.55 26.44-7.1 35.18-18.17 2.32-2.94 3.8-4.34 4.32-8.88.18-1.61 2.88-3.75 1.89-6.73-.63-1.9.64-4.1 1.76-5.03 1.22-1.02 3.43-2.13 5.32-1.58 2.13.62 16.77-1.57 25.16-2.79l12.92-1.87c7.03-1.02 13.5-2.23 20.07-3.67l26.9-5.89c3.74-.82 6.06-1.59 9.61-2.6l12.98-3.7 14.59-3.72 23.39-7.23c-3.47 8.87-7.08 17.03-12.35 24.33l-3.79 5.24c-5.23 7.24-12.19 13.32-19.31 18.55-8.27 6.08-16.85 9.91-26.69 11.9l-7.39 1.5c-6.11 1.24-13.14 3.16-19.1 3.12-.69 0-1.85 2.61-2.46 2.44-.5-.14-1.2-.42-1.86-1.63-1.42 2.94-3.89.96-5.7 1.08l-15.74 1.01c-3.39.22-6.35 1.97-10.18 1.32-5.12-.87-10.34-1.01-15.16-.21 6.35 3.19 12.5.79 18.66 1.74 4.11 2.48 9.09 2.08 12.64-1.26 5.78.2 11.24.32 16.88-1.13 4.95.73 9.29-.02 14.07-1.31 2.07-.56 5.67.73 7.22-.18 2.63-1.55 3.89-1.79 5.78.19 1.52 1.59.36 2.9-.37 4.87-6.6 17.93-26.37 32.52-43.87 35.15l-10.95 1.64-9.92 1.55-20.96.52-14.02-1.1c-5.22-.41-10.2-2.29-15.59-.44 1.94 2.48 4.75.66 6.71 1.21l11.19 3.18 22.69.59c5.09.13 9.12-.45 14.13-1.26 3.45-.55 7.69 1.39 10.75-1.13.81.93 1.65 1.17 2.05.81s1.52-1.41 2.34-1.43c2.7 2.93-.26 7-.36 9.67-.15 4.09-2.53 4.28-4.09 6.31l-8.29 10.82c-8.9 9.21-19.57 16.74-32.51 19.63-1.85.41-3.29-.55-3.9 2.08-8.15-1.07-11.81 2.96-21.3-.68l-12.44-1.59c-3.25-1.75-5.92-1.8-9.2-2.38l-7.35-1.3-8.74-3.69c-1.73-.73-4.82-3.51-7.54-.23l22.47 8.04 8.6 2.18 13.84 3.05c1.87.41 3.88 1.32 4.51 2.4.55.93.52 3.97.06 5.05l-5.74 13.29c-1.18 2.72-2.47 4.59-5.42 5.46.06 1.7 1.86 1.58 2.37 1.08.29-.29.87-.45 1.32-1.51 4.41 1.42 7.81-1.99 11.29-3.28l17.67-6.55c-.62-1.63-1.84-1.32-2.42-1.28Zm-135.89-73.92c-7.14-.21-13.08-.45-20.36-1.43 3.15 3.4 13.54 2.49 20.36 1.43m26.54 31.28c.93-.85 1.73-1.22 1.92-2.16.38-1.87-.19-2.38-1.15-2.44-6.21-.36-10.41 9.73-21.47 13.07-1.53.3-1.65.39-1.85 1.46-.17.91.23 2.02 1.8 1.89 2.9-.24 16.15-7.12 20.75-11.82m-9.81 30.11c-5.06-1.07-8.21-2.08-11.87-1.39v1.47c4.03.41 7.94.52 11.87-.08m31.21 37.62-12.47-7c-4.37-2.45-9.54-3.7-11.83-9.43-3.68-.35-7.14.48-11.26-.98 1.73-3.84 5.92-3.08 9.24-2.99.9-.58.57-3.72-.33-3.78l-3.44-.25c-2.21-.16-4.24.74-6.13-1.39 2.19-.8 4.32-1.53 7.9-1.39-.72-4.25-4.17-5.3-8.53-6.05-3.62-.63-8.45-1.59-9.91 3.45-2.21 7.65-.37 13.25.91 20.5 10.3-.47 27.7 1.52 29.03 6.65.24.93-1.7 4.23-.17 10.66 6.66 3.34 14.8 6.43 22.58 4.2 4.59-1.32 8.62-4.77 13.8-4.89-2.36-4.39-5.83-3.2-9.08-4.19l-10.32-3.12Zm36.66 11.71c4.52-1.69 8.84-1.42 12.84.48 5.48 2.6 11.63-.11 15.84-3.91-4.37-.21-6.7-2.72-10.53-4.12 2.96-.51 7.88-1.28 10.61.05 4.68 2.65 7.93 1.94 12.64-.57 2.45-1.31 5.84-1.56 7.07-4.74-3.32-1.98-6-.87-9.68 1.42-.64-2.51 1.49-2.16 1.92-2.64.69-.77.14-2.38.28-3.03 4.98-3.55 9.48 2.07 11.01-.25l2.38-3.62-.03 6c6.34-1.44 11.36-4.26 17.05-6.94 1.72-.81 4.18-.34 6.03-2.85-1.16-1.92-3.51-3.02-6.99-4.1 3.36-3.78 7.74 2.99 15.49.75 2.38-.69 3.1-2.63 3-4.01-.34-4.58-16.18-8.01-23.59-4.86l-57.44 24.44-24.63 10.35-47.93 20.16-19.35 8.77c-1.68.76-.97 4.04-.01 4.91.74.67 2.06 2.14 3.7 2.33l16.59 1.95 4.06-1.75c3.36-.26 5.92-.73 8.52-3.44-3.48-.83-5.65-1.29-7.97-4.08 4.54-1.83 8.18-.03 12.46 1.23 2.89.18 7.24-.85 9.78-1.96l19.94-8.72c1.99-.87-5.6-5.5-1.25-5.29l2.42.12c3.45 2.69 7.21 1.85 11.1.15l10.55-4.61c2.02-.88 3.62-3.42 6.51-2.02-.46-4.25-4.17-1.93-5.15-2.65-2.23-1.64-3.82-2.55-7.24-2.95m-50.39-23.68c3 .7 7.8-3.2 7.67-6.39-3.96-2.98-9.76-1.31-13.75.89 1.99 1.81 2.99 4.62 6.08 5.5m-10.48 8.24-16.86-3.24c-2.29-.4-5.09 1.98-7.02 2.59l-11.41 3.59c11.82 6.3 22.77 3.89 35.29-2.95Zm126.29 6.22c1.82.67 3.54-.17 4.61-1.47.62-.76 1.67-1.93.49-3.53-1.75 1.4-3.33 1.99-5.11 2.38-.3.67-.29 2.09 0 2.62Zm19.35 1.23-.5.5.5.5.5-.5zm-27.56 1.09c-5.68.38-9.29 2.57-13.72 5.09 5.56 1.86 10.69-1.2 13.72-5.09m37.25 1.31c-1.84-1.19-4.21-2.38-6.89-.47 2.19 1.87 4.3 1.05 6.15 1.04.23-.25.48-.43.73-.57Zm.53.62-.53.72c2.34 1.3 4.46 3.14 7.95 3.4-1.2-3.64-4.61-4.42-7.42-4.12m-198.23 30.4c.61-.82-.28-2.24-.84-2.74-.65-.58-2.2-.82-3.34-.35l-14.14 5.95c-3.03 1.27-5.79.78-9.29.98-4.03.23-8.64 2.22-12.63.4-2.79-1.28-5.72-2.02-8.88-.82l-16.88-11.38-12.58-11.47-13.86-8.25c-1.22-.72-2.43.99-2.11 1.65.6 1.26 16.78 8.88 22.15 15.5 4.71 5.8 10.35 9.8 17.14 13.84l-7.24 11.22c-6.77 8.12-15.17 13.68-26.06 14.16 2.19 5.02 17.47-.28 22.29-4.7l9.5-8.71c2.46-2.26 3.55-6.51 6.9-8.27s7.33-.08 10.6 1.04c4.78 1.63 33.88-.77 39.27-8.05M1259.5 483l-.5.5.5.5.5-.5zm-76.91 21.5c2.98 3.91 9.68 4.72 14.04 3.63 1.21 1.55 2.06 3.22 3.12 3.71 1.16.53 3.93.44 4-.54-.51-8.96 3.88-18.31 11.73-21.95-6.95-3.81-20.04-5.28-22.64-3.28-1.22.94-2.17 2.79-2.5 4.59 4.61.75 7.02 2.87 10.52 4.11-6.82 2.02-12.1-3-17.83-1.46-.95 2.87-2.61 8.33-.44 11.19m-10.82-4.68c-.24-3.06 1.8-5.06 2.49-8.02.2-1.63-4.78-2.32-5.3-.99l-3.35 8.57c2.28.7 3.76.56 6.16.43Zm50.4.27c2.44-3.05 5.54-5.02 7.28-8.98l-9.65-.75c-5.23-.41-8.08 4.67-7.81 9.6.35 6.37-1.09 12.53.51 18.71.67 2.6 6.56 2.23 6.19.23-2.43-2.89 1.36-16.15 3.48-18.8Zm17.68 34.86c-2.92-5.5 3.6-6.72 2.7-8.1l-1.39-2.13c2.19-2.55 5.27-5.53 8.16-7.27 3.64-2.19 2.63-5.26 3.41-8.34l1.79-7.07c.62-2.46 1.11-3.45.25-5.26-1.26-2.68-1.75-2.4-4.56-3.39-1.57-.55-3.55-2.11-5.11-1.08-7.1 4.7.91 4.09 1.26 13.34 1.31 1.36 3.98 2.79 3.7 4.89s-1.33 3.72-3.1 5.46l-7.54 7.41c-4.07 4-9.96 4.03-15.19 6.33 3.12 1.92 5.5 3.51 7.43 5.41l8.17-.2Zm-13.46-31.05 7.75-8.4c-10.31.86-11.3 12.8-9.59 23.55 1.26-4.99-.94-10.34 1.84-15.15m-78.07 2.14c1.35-.58 1.83-1.76 1.68-2.45-.09-.41-1.36-.84-2.07-.51l-25.49 11.95c.37.38.96.9 1.29 1.54zm15.03 16.74 21.11-8.59c-3.14-2.95-5.8-.42-8.53.8l-10.21 4.56c-.44.19-2.73-.52-2.52-.16.22.39.79 1.82.15 3.38Zm72.28-2.77c-3.03-1.93-3.93-2.58-5.1-5.22-1.28 1.63-.71 3.39.18 5.02s3.31 2.3 4.93.2Zm-302.16 2.56c-2.18-1.3-3.7-4.38-7.4-2.29l12.33 9.41c.8.61 2.09.36 2.39-.22 1.92-3.71-3.95-4.88-7.33-6.89Zm165.51.18c.08-.17.36-1.16-.45-1.74l-11.63.49c4.09.57 8.01 1.93 12.08 1.26Zm146.68 1.73-.65.02.65.02h.68l.65-.02-.65-.02zm-155.45 26.44c2.5.99 4.34 2.84 8.04 2.14.82-.16 3.19.3 3.49-.76l.76-2.68 11.63-5.1c3.18-1.4 5.33-1.16 8.21-3.28s7.1-3.02 10.42-4.52l18.4-8.32c.49-.22 2.01-.57 1.82-.86l-1.52-2.18-7.73 2.53-9.95 3.93c-4.86 1.92-9.02 3.56-14.59 2.03-2.23 10.13-15.16.3-21.58-1.19-4.76-1.1-9.78 3.21-14.11 4.65-3.23 1.07-5.44 2.8-6.7 5.66 3.5 4.8 8.34 5.96 13.4 7.96ZM961.73 538.4c-2.48-3.13-3.24-3.25-5.39-3.72-4.81-1.04-8.55-4.13-13.17-6.61-.92.13-1.24 2.67-.85 3.3-.19-.31 15.9 9.26 19.42 7.03Zm114.21 12.24c-.18 1.53 1.16 1.6 1.55 1.37.54-.32.75-.92.51-1.51-.19-.47-1.32-1.18-2.07.14Z" class="cls-2"/><path d="M864.66 356.95c1.61 1.59 4.5 1.06 6.02-.81l2.65 2.31c1.85 4.66 5.55 4.11 9.71 5.1l18.94 4.5 11.73 2.01c1.6-1.41 2.65-2.51 4.23-3 1.09.11 3.05.92 3.11 2.09l.16 3.11c.04.72 2.02 1.65 2.82 1.22 2.72-1.46 5.06 1.59 6.91 1.59 4.44 0 8.66 1.96 12.57 3.23l27.38 8.9 24 9.03 15.11 6.7c9.88 4.38 20.05 8.05 28.71 14.24.54.39.74 1.37 1.14 1.79l9.9 10.41c3.36 3.54 8.13 6.84 10.6 11 1.78 3 2.93 4.49 5.51 6.9 4.11 3.83 4.74 16.71 5.2 16.17-.29.34-1.25.2-1.61.22-.61.04-1.82-.11-1.62-1.74.08-.62-.11-1.68-.47-1.88-.4-.22-1.66-.31-2.29.1l-13.2 8.3c-4.53 2.85-8.54 4.15-12.95 7.38-3.17 2.32-6.8 5.43-10.86 5.87l-9.03.97c-8.36-1.65-15.59-5.95-23.02-9.58l-11.32-5.54-9.49-3.78c-2.52-1.01-5.76-1.05-7.2-3.67-2.09-3.8-5.72-2.34-8.95-3.35l-37.15-11.57c-2.56-.8-5.47-.97-7.64-2.25-.39-.46-.92-.89-1.52-.9h-.61c.08-1.46-1.49-1.13-1.16.08l-2.22.39c-.43-1.03-1.88-2.38-2.77-2.77-1.21-.53-3.43.39-4.69.38-2.95-2.01-7.21-3.09-11.47-1.86.3 16.05.85 31.93-1.86 47.92l-4.78 17.32c-3.01 10.91-7.49 16.66-11.31 24.5-8.34 17.1-21.73 30.64-35.68 43.15-3.49 3.13-6.99 5.03-10.61 7.65-3.2 2.31-5.03 4.48-9.59 5.86-1.94.59-4.98 3.15-7.08 4.34l-7.62 4.32c-8.69 4.93-17.54 8.58-27.26 10.77l-12.25 2.76c-6.64 1.5-12.83 2.36-19.6 2.63l-5.02 1.56-14.04.22-5.25-1.07c-18.75-.12-37.18-3.35-54.38-10.75l-12.03-5.18-14.77-8.12c-16.65-9.15-29.93-23.01-41.64-38.29-8.59-11.21-14.52-23.93-19.74-37l-3.51-10.84.04-6.71c-3.46-7.86-3.17-15.01-3.06-23.43.08-6.33-2.39-13.18-.06-19.26 1.33-3.46 1.67-6.66 1.23-11.02-2-1.34-4.33.08-6.51.51-2.65.52-4.36.41-5.89 2.09-1.88 2.07-1.65 4.18-1.7 6.56-1.87-.19-3.88.27-4.23 3.23l-1.5-.84c.03-1.48 1.37-3.53 2.02-5.13-2.45-3.98-10.2-.03-17.69 2.31l-17.76 5.54-12.95 5.04c-6.55 2.55-12.25 5.13-18.82 7.26-.78.25-13.98 6.22-14.44 6.51l-7.14 4.65-9.46 5.53c-6.12 3.58-12.59 6.39-17.98 11.21-.81 4.4 1.32 8.39 1.35 12.24l-.24 12.79c-.28 2.13-1.63 3.87-3.23 5.61l4.37 2.34-7.17 1.92c-2.62.68-4.6 1.74-5 4.13l-2.94-.12c-2.22-.09-3.67.91-5.64 2.46l-4.44 3.51c-2.6 2.06-5.84 3.83-8.97 4.89-1.78.6-2.23 1.88-4.15 3.05l-4.94 3.02c-1.24.76-2.81 2.2-4.04 2.78-3.46 1.64-6.78 3.98-9.89 6.22l-8.78 6.31c-4.92 1.28-8.9 4.63-13.2 7.72l-4.1 2.94c-3.59 2.57-7.98 4.44-11.47 7.53l-4.26 3.78c-9.73 2.45-17.5 15.03-26.06 9.24-3.36-2.27-4.82-5.91-4.03-10.38l1.23-6.93-.17-.9c1.03-.17 2.16-1.03 2.61-2.47 1.64-5.17 4.68-9.39 6.46-14.36l3.45-9.67c.49-1.37-.02-2.7-.7-3.1-2.34-1.35-26.89 3.82-33.32-3.25-5.02-5.52-.26-15.16 5.96-17.48 1.86-.69 2.34-1.76 2.34-2.96 1.3-.63 3.07-.96 3.98-2.02 5.3-.54 9.61-3.75 14.15-6.85 2.19-1.49 5.14-2.13 5.45-4.94l6.62-4.96c1.2-.9 2.7-1.19 2.89-3.13l1.01-.03c5.2-.17 8.74-4.65 13.06-7.9l3.3-1.19c.83-.3.89-1.81.88-2.85 1.44.17.9 1.79 3.24 3.73-.42-3.39 1.94-4.01 2.2-5.17 4.48.54 7.56-2.51 11-4.69l17.83-11.34.63-15.52c-1.97-1.48-4.61-3.33-4.92-6.17-.18-1.69 1.04-2.73 2.36-2.82 2.58-.17 4.28 5.03 6.05 3.51l13.54-11.59c6.67-5.71 13.93-11.59 21.96-15.52 2.89-1.42 4.13-3.25 6.61-4.69 31.18-18.18 64.33-31.92 98.86-41.92l16.53-4.78c1.14-.33 3.05.48 3.22-1.52.08-.89.04-1.83-.17-2.81 1.83.07 4.35-.3 6 .5 5.65 2.72 12.15-2.2 17.74-2.4 3.18-.11 5.08-1 8.24-1.72 2.81-.65 6.43.61 8.61-2.48.98-1.39 2.48-3.8 4.27-3.52 2.04.32 3.94.29 5.97-.23.19 3.48 3.46 1.8 5.5 1.73 7.65-.28 13.17-2.61 18.55-7.58 12.55-11.57 27.01-19.84 42.69-26.42 8.62-3.62 17.7-7.34 26.74-9.41 2.87-.66 5.85-2.45 8.79-.43-.81 11.39-1.41 21.95-1.15 33.24l18.13-.57c1.29-.04 1.77-1.75 1.14-2.33 1.23.04 2.67.77 3.26 2.18 1.15-1.15.34-1.91.45-2.39.96 1.59 2.43 2.54 4.87 2.59l13.84.25 3.42-1.9h4.64c-.04 1.26 1.24 2.77 3.03 2.31 8.39-2.14 14.21.33 15.61-2.02.39-.66-.47-2.31-.44-3.46l.97-29.42c24.04 4.72 44.79 13.99 64.94 28.82l14.91 12.89c9.26-.79 18.34 5.53 18.34 1.63 0-.82-.94-1.91-1.61-2.61Zm-242.64 66.41c13.01-1.78 25.96-4.08 37.75-4.78 3.95-.24 8.21-.73 12.11.39 1.78-1.69 3.99-3.39 7.12-2.75 5.51 1.12 10.74-.82 16.11-.79l17.86.12c2.24.02 4.36.44 6.39-1.27l92.67 4.7 21.82 2.48 8.7 2.09 17.76 2.62 6.97 2.4 12.46.88 13.1 3.06 8.24 1.8 27.12 7.61c5.81 1.63 11.77 3.23 16.81 5.7 2.35 1.15 5.45 2.63 8.18 2.69 3.87.09 5.98 2.03 9.2 3.15 7.49 2.61 14.63 4.94 21.82 8.34l23.85 11.29c3.83 1.81 8.51 4.85 12.29 4.15l3.26 1.94c.51.3 1.36-2.07 2.02-2.43l21.53-11.58 6.14-3.64c3.71-2.2 6.84-4.41 7.37-7.97.7-4.77-1.73-6.49-4.5-9.67-4.4-5.04-8.6-9.93-14.05-13.91l-7.2-7.96c-2.5-2.76-5.93-5.07-9.3-6.61l-15.37-6.99c-27.91-12.67-56.59-22.99-86.44-30.19l-6.69-1.61c-10.68-2.58-20.62-5.77-31.51-7.22-1.49-1.04-3.24-2.26-5.54-2.38l-18.05-.98-7.97-1.72c-5.93-1.28-11.41-2.29-17.33-2.72l-18.59-1.36c-3.89-.28-6.78-1.75-10.16-1.92l-65.88-3.4c-4.62-.24-8.66.96-13.07.96h-21.46c-5.59-.02-10.81.9-16.59 1.21l-21.02 1.14-17.14 1.19c-4.39.3-11.94 2.28-23.99 2.79-2.7.11-5.63 1.53-8.67 1.99l-8.81 1.33c-3.44.52-5.79 1.17-9.36 1.64l-11.55 1.5-18.49 4.13c-6.77 1.51-12.8 2.64-19.45 4.43l-15.59 4.2c-3.42.92-6.22 1.56-9.66 2.62l-12.97 4.01c-12.32 3.81-24.37 7.37-35.75 13.27l-3.88 2.02c-4.49 2.33-8.98 3.56-13.47 5.72-8.83 4.23-17.09 8.64-25.46 13.86-10.37 6.46-20.86 12.14-30.35 20.35-5.62 4.86-15.66 12.51-16.08 17.72s-.49 9.64-1.53 14.38c-.62 2.84.97 6.28-.35 9.13-3.98 8.61.02 19.33 9.18 22.89 3.07 1.19 8.09.93 11.22.14 2.09-.53 4.43-2.4 6.11-3.7l14.07-10.86 10.79-7.36 28-15.75 23.94-11.07 14.65-6.21 18.08-6.65c3.87-1.42 7.87-1.87 12.17-3.37l6.48-2.26c3.24.41 6.16-1.23 9.36-2.04l25.49-6.5 3.38 1.04 2.05-2.35 7.36-.72c5.2-2.29 10.01-1.92 15.36-3.21l7.88-1.9 9.09-1.25Zm94.79.79-3.8-.2c-1.01-.05-1.91-1.25-2.4-2.91l-20.88.51-4.05.63c-.99.15-1.14 2.48-.9 3.63-.79.13-1.61-.24-1.66-.79l-.28-3.15c-1.13.8-1.24 1.61-1.58 2.45-.69-2.76-3.83-3.22-7.03-1.38 1.49 5.18.45 10.55.21 16.13l-.84 19.42c-.39 9.09-1.02 17.33-4.11 27.29-2.26-2.56-.92-6.21-.8-9.89l.7-21.43.67-28.24c.04-1.6-.96-2.85-1.81-3.15-1.36-.49-2.76.72-3.61 1.07-1.05.43-1.93 1.15-2.71 3.96-1.95-3.3-3.36-6.04-6.02-4.9-.46.2-.71.7-.53 1.47l-10.27.42c-3.61.15-6.81 1.49-10.04.87-1.78-.35-3.39.18-4.8 1.9-1.25-1.28-2.4-1.77-3.66-1.9-1.76-.18-2.68 1-3.8 1.9-1.36 1.08-1.96 1.8-2.07 4.19l-3.47 72.12-1.19 22.84-.36 15.1c-.1 4.25-2.02 10.4-.07 14.3l9.24 9.65 23.93 16.1 13.14 5.91.72-12.21.81-20.67 1.76-12.86c-4.04-6.67 12.12-.92 27.79-15.28 3.2-2.93 6.77-5.03 9.36-8.7 1.09 2.45-.31 3.56-1.3 4.89 1.3 5.95 1.53 14.44-.68 18.93.52 8.42 1.16 16.64-.12 25.09l-.48 18.75c-.11 4.28-1.61 8.57-.64 12.92l13.95 1.95c6.29 2.49 13.11.33 19.78.13l12.71-.39c3.01-7 1.96-14.27 2.48-21.64l1.38-19.67c4.8 6.89 11.61 9.93 18.97 13.3 2.5 1.14 4.33 2.15 7.59 2.33l14.92.86c12.23.7 22.26-5.48 31.69-12.03 2.48-1.72 2.93-2.03 4.77-4.39 7.36-9.48 13.34-19.52 16.39-31.48.69-2.7 2.08-6.37 2.49-8.93l1.29-7.98c.82-5.09 1.76-9.16 2-13.85l2.98-57.37c.11-2.07.25-3.23-1.14-4.68-1.14-1.19-2.49-.29-4.44-.31l-26.05-.35-26.86-.3c-2.61-.03-5.69-1.7-9.04-1.06l-.28-11.54c-1.18-1.01-5.09-.89-5.34.61-.35 2.18-.2 4.03-2.07 4.71.42-.8.28-1.67-.21-2.13-.59-.56-1.58-.68-2.18-.76-1.23-3.88-7.66-.82-16.4-2.61-3.3-.68-7.67-1.08-10.3.55l.61 3.53c.17 1-.51 1.75-1.81 1.27l-.3-4.99-1.92 3.22c-1.28.83-1.36-.14-1.39-.69l-.15-2.93-21.31-1.38c-1.72-.11-3.69-.01-4.35 1.17-.4.71-.78 2.1-.83 3.03ZM342.8 576.16c3.43-2.14 6.23-3.96 9.46-6.04l29.72-19.07 9.49-6.42c5.35-3.62 10.51-6.74 15.89-10.08l21.65-13.43c3.24-2.01 5.88-7.14 2.94-9.45l-9.7-7.64c-12.83 9.33-20.31 12.77-33.97 4.66-4.57-2.72-6.57-8.24-6.51-13.66l.14-13.68c-3.4-1.1-4.77 2.41-6.87 3.47-3.83 1.94-6.56 3.97-9.97 6.16l-33.67 21.55-17.04 11.86c-7.03 4.9-18.21 9.91-20.26 16.43 11.25 1.29 22.76 1.17 34.7 1.32l6.33 1.02-14.18 30.77c-1.08 2.35-2.6 3.65-2.88 6.57-.25 2.59-4.6 6.64-1.98 9.75 2.05 1.63 6.21-1.38 8.32-2.68l8.27-5.11 10.12-6.31Z" class="cls-3"/><path d="m1401.8 208.21-2.86-3.33-53.86 12.39-78.95 18.73-70.77 14.22-15.73 2.58-30.55 6.49c-16.67 3.54-32.72 7.08-49.65 9.45l-12.06 2.76c-20.43 2.09-40.02 5.82-60.33 9.43-11.14 1.98-21.43 4.93-31.77 9.86s-18.52 12.25-27.6 18.78c-.87.62-1.68 3.18-2.73 3.46-3.83 1-5.95 5.03-8.72 7.34-4.17 3.47-8.39 6.89-11.02 11.32-7.52-1.53-6.8 5.37-9.74 5.62-2.51.21-4.03-4.31-9.77-10.08-13.71-13.79-26.81-27.59-41.74-40.1l-26.71-16.39c-11.23-6.9-23.04-11.06-35.08-15.81-48.38-19.1-116.9-17.82-166.19-1.08-11.97 4.06-23.34 7.68-34.5 13.65-16.92 9.05-33.54 17.97-47.18 32.3 5.14-.45 8.34-3.93 12.01-6.58 20.86-15.02 43.75-26.59 68.26-34.83l13.62-4.58c3.08-1.04 5.48-1.49 8.88-2.29l7.74-1.82 10.15-1.39c2.4-.33 5.48-1 7.78-1.67 5.45-1.58 9.87-.84 15.54-1.25 3.75-.27 8.16-2.29 12.58-1.01.87.25 3.37-.44 4.28.8.64.87.71 2.04.46 3.48 1.22.25 3.51.07 4.43-.18.87-.23.29-1.87-.38-3.55l17.98.38 21.29 1.81c4.79.41 28.18 5.87 32.62 7.59l8.38 3.25c18.69 7.25 36.83 15.38 53.43 26.54l16.58 12.61c3.84 2.92 7.77 5.49 10.16 9.71l-2.95 4.79c2.74.84 4.46-.06 6.89-2.39l13.29 14.38 6.15 7.77 9.89 13.35-11.79 15.82c-1.63 2.19-4.08 3.63-3.62 6.51-1.58.49-2.63 1.59-4.23 3l-11.73-2.01-18.94-4.5c-4.16-.99-7.86-.44-9.71-5.1l-2.65-2.31c-3.72-5.39-10.13-11.26-15.73-16.04-12.2-10.42-24.55-19.24-39.48-25.73-3.62-1.57-6.19-4.7-11.22-4.95l-7.89-3.54c-5.91-.65-10.8-3.46-16.41-4.69l-10.62-2.33-23.03-2.46 18.47-25.76c2.31-3.22 5.73-5.43 6.68-10.12l-26.68-1.3c-1.6 4.01 8.49 5.06 13.58 3.86 2.55-.6 4.03-.62 5.3.89 2.28 2.71-1.18 4.02-2.03 5.36-2.02 3.18-3.48 4.96-5.61 7.74l-8.65 11.3-7.42 10.72c-1.82 2.63-2.84 5.78-7.72 5.91.07 2.68 1.44 4.77 3.65 5.95 2.25-3.53 3.07-8.38 7.33-9.61 2.42-.7 6.83-.59 9.31.09 6.67 1.83 12.81 1.41 19.36 3.06l9.29 2.33 17.61 5.42 19.06 8.47c3.05 1.36 5.99 3.38 9.13 5.41l7.79 5.04 14.37 10.49 15.5 15.3c.66.7 1.61 1.79 1.61 2.61 0 3.9-9.08-2.42-18.34-1.63l-14.91-12.89c-20.15-14.83-40.9-24.1-64.94-28.82l-.97 29.42c-.04 1.15.83 2.8.44 3.46-1.4 2.35-7.22-.12-15.61 2.02-1.79.46-3.08-1.06-3.03-2.31 5.77-8.67 5.55-22.68.63-24.29-.81-.26-1.72.24-2.33.32.23-1.43.93-3.61-.83-5.15l-4.76-4.16c-10.05-3.12-20.72 2.03-24.5 11.51-2.89 7.25-3.5 15.65 1.3 21.03.64.59.16 2.29-1.14 2.33l-18.13.57c-.26-11.29.34-21.85 1.15-33.24-2.94-2.01-5.92-.22-8.79.43-9.05 2.07-18.12 5.8-26.74 9.41-15.67 6.57-30.13 14.84-42.69 26.42-5.38 4.97-10.91 7.3-18.55 7.58-2.05.07-5.31 1.75-5.5-1.73 16.57-17.31 40.76-35.07 63.19-43.82 11.03-4.3 21.36-8.74 33.29-10.4l8.7-2.07c4.67-1.11 8.84-.8 13.92-1.73 2.37-.43 5.87 1.45 8.24-1.33 2.82.73 4.04 4.42 8.98 3.57l-26.41-40.24 24.16-.08c-.16-1.59-.34-2.53-.6-2.83s-1.05-.59-1.86-.62l-26.74-.99c-1.1 1.96.32 3.58 1.52 5.31l9.86 14.22 2.55 5.46c3.36 3.45 5.83 6.73 6.82 12.07-4.33-1.23-6.85.44-9.88.89l-9.95 1.48c-17.93 2.66-31.21 6.68-48.08 14.08l-11.87 5.21c-4.11 1.8-7.26 4.33-11.16 6.94l-11.06 7.4-.65 2.06c-.11.34-.96.17-1.63-1.06-1.21 2.55-3.83 3.33-5.96 5.24l-14.63 13.14c-2.82 2.53-5.59 4.92-6.75 8.34-1.79-.28-3.29 2.13-4.27 3.52-2.18 3.09-5.8 1.83-8.61 2.48-3.16.73-5.06 1.61-8.24 1.72-5.58.2-12.08 5.11-17.74 2.4-.35-4.46-4.14-7.3-6.13-11.11-2.84-5.42-5.42-10.96-10.3-16.3 1.07-5.21 5.28-8.6 8.72-12.38 7.24-7.95 14.51-15.76 23.11-22.28 1.44 1.32 2.53 2.28 3.2 2.57 1.22.53 2.41-.44 3.79-2.17-1.21-1.05-3.07-2.98-5.07-3.82-2.62-1.09-4.89 1.47-6.68 3.01l-11.45 9.87c-.72-2.28.83-3.33 2.35-4.88 4.09-4.17 8.03-7.86 12.51-11.51l17.14-13.98c34.31-27.97 94.97-48.24 138.99-48.74l20.66-.23c5.05-.06 9.9.29 15.03.87l27.05 3.06c23.63 4.14 46.72 11.3 67.37 23.25l23.51 13.61 14.65 10.47 32.8 32.02 10.27 11.77c7.67-4.38 13.96-9 19.53-15.18 12.1-13.43 44.33-34.02 62.47-37.34l31.29-5.72 33.15-4.94 47.81-9.28 78.03-16.01 66.43-13.53 67.8-16.08 54.64-12.49c1.78-.41 4.19 1.14 5.18 1.79.93.61 1.27 2.54.78 3.7Zm-661.63 51.34c-.16-2.15-.24-3.61-1-4.19s-2.87-.82-3.65-.42c-1.11.58-1.24 7.68 1.99 8.15 2.04.29 2.87-.79 2.66-3.54m-55.44 11-4.16 3.96c-2.66 2.53-.12 6.72 2.82 8.52 3.81 2.32 10.66-2.78 10.35-6.48s-4.17-5.11-9.01-5.99Zm103.55 11.93c3.54 0 5.72-2.26 5.66-5.01s-1.33-6.64-4.81-6.23l-6.39.74c-2.52.29-2.83 3.62-2.87 5.52s.87 4.98 3.42 4.98zm-158.9 23.15c3.37-.71 3.78-3.61 3.65-6.12-.11-2.37-1-4.85-3.95-5.46-3.57-.74-6.42-.11-8.58 2.93-1.3 1.84-.47 4.2.81 6.44 1.49 2.59 4.67 2.93 8.06 2.21Zm217.82.92c3.96-2.03 5.15-5.28 3.98-8.24-1.53-3.86-4.24-4.96-7.46-4.07-3.78 1.04-5.37 3.1-5.23 7.63.11 3.68 5.3 6.43 8.71 4.69Zm-277.83 31.56c1.49 2.52 3.36 5.47 5.38 5.69 3.2.34 6.81.06 7.95-2.83 1.32-3.33.48-6.99-2.3-8.59-1.71-.98-5.89-1.78-6.8 1s-1.76 4.1-4.23 4.73m326.69 7.29c3.11-1.23 3.35-4.17 3.01-6.86-.23-1.82-1.41-3.94-4.08-4.53-2.41-.53-5.3-.44-7.19 1.08-1.3 1.04-3.39 3.23-2.59 5.96 1.23 4.17 6.55 6.06 10.85 4.36Z" class="cls-2"/><path d="M747.19 324.85c-.41 2.54 6.68 9.49-2.95 23.96l-3.42 1.9-13.84-.25c-2.45-.04-3.91-.99-4.87-2.59-5.63-9.34-4.45-21.93 5.68-28.22 4.25-2.64 11.6-2.26 15.2 1.23 1.51 1.47 1.89 4.28 4.2 3.97" class="cls-2"/><path d="M908.75 442.51c1.46 3.46 1.55 8.08 1.29 12.46l-1.7 27.84c.08-1.32-5.43 21.9-5.21 21.38l-9.46 22.55c-1.36 3.24-2.87 6.91-5.31 9.71 3.25 6.35 19.95 16.05 26.21 17.78l10.49 2.89c2.71.75 7 .94 9.88.99l22.06.32 11.05-1.42c4.27-.55 8.6-2.16 12.65-3.7l10.61-4.04 7.04-3.07 20.41-12.35 13.23.09 12.47-1.71 9.54-1.41 18.41-5.41c1.51-.45 2.58-2.43 3.81-3.43l8.73 3.89c.91.9 1.98 1.32 2.21 3.49-2.03-.16-3.04-.81-4.14-1.41-5.06 1.23-9.7 3.84-14.36 6.02-9.14 4.28-19.71 5.32-30.14 5.59l-12.44.33c-4.16.11-6.05 1.45-8.99 3.08l-16.8 9.3-20.16 7.94-10.33 2.51c-3.58.94-6.88.75-9.88 2.2-3.38 1.63-8.21 2.1-12.41 1.63-1.84.67-4.02 3.46-4.45 5.41-1.06.77-1.95 1.86-2.04 3.05l-.08 1c-.86-.14-3.29-.33-3.67.62-.41 1.03-.17 2.49-.24 3.33-.21 2.56-2.03 4.2-3.78 6.35l-10.26 12.59-5.96 7.17c-4.84 3.9-9.62 7.97-12.89 13.08-1.78-.26-2.49.99-3.73 2.25l-5.45 5.57-14.17 10.78-18.76 13.21c-3.26 2.29-6.45 4.44-10.01 5.04-.6.1-1.47-.06-1.88.61-.24.4-.23 1.02-.14 1.38-.29.08-.69.04-.99.02-1.38-.09-2.64.63-3.01 1.97l-.99.03c-1.55.05-3.1.72-4 1.97-1.33 1.85-3.65 2.12-5.93 3.14-16.92 7.57-33.7 14.23-52.01 17.96-13.38 2.73-25.88 5.46-39.43 5.38l-8.42 1.52-7.22-1.04-16.01.87-8.9.09-18.23-2.91c-23.91-3.82-47.07-9.97-69.15-19.49l-15.05-8.06-11.12-6.97-11.1-7.01c-10.56-6.67-19.55-15.14-28.31-23.54-1.88-1.81-3.29-4.23-5.68-5.53-.05-.16-.11-.36-.21-.49-.31-.4-.76-.7-1.24-.89l-8.71-10.33-14.41-19.53-2.91-6.11c-.82-1.6-1.14-3.19-3.11-3.01l-4.28-8.53c-1.91-3.81-4.51-6.41-8.98-7.13l-12.69-2.04c-3.31-1.85-7.14-3.21-11.02-3.2-2.38-2.15-12.26-2.74-20.67-8.44-4.81-3.26-10.41-5.52-14.82-9.07s-9.45-5.6-15.43-4.54c.39-2.39 2.38-3.45 5-4.13l7.17-1.92c2.87 1.54 5.13 3.92 7.98 5.79l7.24 4.74c3.71 2.43 8.77 2.53 10.94 7.22 4.61-.83 7.46 2.46 11.38 3.56l9.97 2.81 10.61 2.35c5.98 1.32 12.68 2.22 18.73 1.02l8.73-1.72c13.52-2.66 25.64-7.46 36.27-15.73 1.41-1.1 3.35-1.43 3.93-2.87.79-1.94-.42-3.1-1.1-4.97l-5.08-14.08c-3.38-9.37-7.41-27.54-7.27-36.93.05-3.03-.78-4.75-.72-7.54l.36-19.54 1.5.84c.35-2.96 2.36-3.41 4.23-3.23l-.55 26.12 1.19 14.04 1.57 8.14 5.16 18.49c.89 3.18 1.57 5.31 2.93 8.09l4.92 10.09c8.17 16.74 24.62 37.64 39.1 49.28 5.82 4.68 11.23 9.54 17.74 13.07l13.05 7.09c9.89 5.37 19.83 10.47 31.18 12.62l7.87 2.21 10.24 2.42 22.29 2.41c3.38.37 5.15.7 8.83.59l19.67-.57 10.47-1.52 9.54-1.67 7.86-1.58c11.02-2.21 21.98-5.47 31.58-10.4l24.87-12.77c1.74-1.05 4.32-3.78 6.29-5.12l7.19-4.91c17.3-13.32 31.94-29.22 43.08-47.88 6.64-11.13 12.1-21.95 15.51-34.42l2.39-8.73 2.31-11.63 2.04-29.16c.35-4.97-.55-9.08-2.85-12.92 1.26 0 3.48-.92 4.69-.38.89.39 2.33 1.74 2.77 2.77Zm1.67 160.48 4.53-4.71c1.38-1.43 1.84-3.85 3.97-5.32 2.89-1.99 4.45-5.11 6.22-7.73l9.44-13.89c1.08-1.59 4.54-4.55 1.96-7.06l-14.1-1.78c-10.13-2.84-19.37-7.04-27.83-13.21-2.97-2.17-5.49-5.01-9.65-5.55l-11.11 15.1-9.52 10.48-12.39 12.55c-3.74 3.79-7.92 6.03-12.15 9.06-5.93 4.26-11.37 8.47-18 11.81l-14.65 7.38c-4.77 2.4-10.02 5.02-15.19 6.2-4.64 1.06-8.62 2.72-11.96 5.03l-12.36 1.12c-3.18.29-4.96 2.26-6.59 4.13-4.07-.43-8.13.05-12.07.21l-14.63.57c-11.08 1.84-22.09.09-33.27-.26-4.28-.14-7.1-1.23-11.27-1.95l-9.32-1.62c-14.16-4.09-28.28-7.57-41.01-15.14l-11.26-6.69c-13.47-6.15-34.1-24.41-43.31-36.67l-4.73-6.3c-4.15-5.53-10.77-13.42-9.18-16.97l-4.66-2.8-9.96 6.34c-4.25 2.71-6.75 4.46-11.67 5.93-1.73.75-3.6 2.68-6.31 3.47l-11.28 3.26c-3.88 1.12-7.75 1.78-11.87.74-1.45 3.43.04 5.12 1.43 7.49l9.25 15.87c3.97 6.81 8.2 12.56 14 18.16 1.35 1.3 1.48 4.18 3.92 5.11 2.19.84 2.99 6.99 6.75 7.55 2.56.38 5.99-3.85 7.2-1.3 1.42 3.01-3.06 2.96-2.98 5.9.03 1.22 1.5 1.26 2.49 2.17l12.39 11.43c5 2.94 8.69 6.49 13.41 9.78 19.54 13.59 40.98 23.34 63.55 31.31l13.82 3.16 9.62 2.25 8.35 1.85 18.48 1.9 13.05.97c5.34.4 8.84-.68 10.9-6.6 1.26 2.54.59 3.93.18 6.56 6.29.21 12.54 1.09 18.7.27l9.49-1.27 14.74-1.67 7.05-1.26c36.31-6.47 69.69-20.55 100-40.75l16.67-13.06c1.15-.9 4.15-2.63 2.5-4.05-2.46-.97-1.63-4.79 2.27-6.52-.26 2.35.37 4.79 3.88 4.05 1.01.19 2.52-1.89 3.53-3.38 3.08-4.53 6.65-7.61 10.54-11.65m491.38-394.78 1.32 2.74c-.8-.08-.91.39-.98.73-.23 1.18 2.49 8.99-.23 20.27-.07.27-.15.82-.07 1.07-1.98.73-1.99 3.05-2.86 4.94-1.36 2.96-3.45 5.12-3.74 8.18-9.14 11.97-19.07 17.19-21.19 20.74-1.6 2.68-3.06 6.41-3.66 8.95-1.01.33-1.98-.06-2.09-.69s.26-2.19-1.81-2.07c.73 3.23.53 5.79-.76 8.65l-3.08 6.86c-.69.05-2.32.44-2.55.9-.03.07.8 1.38 2.12 1.84l-5.03 7.79c-3.07-.89-5.48 4.09-7.09 9.02l-11.53 10.39c-5.18 4.67-10.52 7.41-16.78 10.46-3.74 1.82-7.09 4.32-11.56 5.1-.19 3.28-2.07 6.27-3.33 8.58l-5.33 9.79c-6.9 12.67-22.88 22.81-35.93 27.73-1 4.58-4.02 8.05-5.64 11.49-3.06 6.5-5.82 12.33-11 17.33l-8.64 8.36c-11.23 10.86-25.75 15.88-41.36 17.68-3.1.89-3.31 5.92-3.73 8.14-2.35-.36-2.81 3.07-3.41 7.97 3.87.42 6.11-1.82 9.33-2.96 2.08-.73 4.58-.48 5.82-2.19l1.03.2c.58-.04 1.8-.35 2.42 1.28l-17.67 6.55c-3.48 1.29-6.88 4.71-11.29 3.28-.45 1.06-1.02 1.22-1.32 1.51-.51.51-2.31.62-2.37-1.08 2.95-.87 4.25-2.74 5.42-5.46l5.74-13.29c.47-1.08.49-4.12-.06-5.05-.64-1.07-2.65-1.98-4.51-2.4l-13.84-3.05-8.6-2.18-22.47-8.04c2.72-3.27 5.81-.49 7.54.23l8.74 3.69 7.35 1.3c3.28.58 5.95.63 9.2 2.38l12.44 1.59c9.49 3.64 13.14-.39 21.3.68.61-2.62 2.04-1.66 3.9-2.08 12.94-2.88 23.6-10.42 32.51-19.63l8.29-10.82c1.56-2.04 3.94-2.23 4.09-6.31.1-2.67 3.06-6.73.36-9.67-.82.01-1.94 1.06-2.34 1.43s-1.23.12-2.05-.81c-3.06 2.52-7.3.58-10.75 1.13-5.01.81-9.05 1.39-14.13 1.26l-22.69-.59-11.19-3.18c-1.96-.56-4.78 1.26-6.71-1.21 5.39-1.85 10.38.03 15.59.44l14.02 1.1 20.96-.52 9.92-1.55 10.95-1.64c17.5-2.62 37.27-17.22 43.87-35.15.73-1.97 1.89-3.28.37-4.87-1.89-1.97-3.15-1.74-5.78-.19-1.55.92-5.15-.37-7.22.18-4.78 1.29-9.12 2.04-14.07 1.31-5.64 1.45-11.1 1.33-16.88 1.13-3.54 3.35-8.52 3.75-12.64 1.26-6.16-.95-12.31 1.45-18.66-1.74 4.81-.8 10.04-.66 15.16.21 3.83.65 6.79-1.1 10.18-1.32l15.74-1.01c1.81-.12 4.27 1.86 5.7-1.08.66 1.21 1.36 1.49 1.86 1.63.61.17 1.77-2.45 2.46-2.44 5.96.04 12.99-1.88 19.1-3.12l7.39-1.5c9.84-1.99 18.42-5.82 26.69-11.9 7.12-5.23 14.08-11.32 19.31-18.55l3.79-5.24c5.28-7.3 8.88-15.45 12.35-24.33l-23.39 7.23-14.59 3.72-12.98 3.7c-3.55 1.01-5.88 1.79-9.61 2.6l-26.9 5.89c-6.57 1.44-13.04 2.65-20.07 3.67l-12.92 1.87c-8.39 1.21-23.02 3.41-25.16 2.79-1.89-.55-4.1.55-5.32 1.58-1.11.93-2.39 3.13-1.76 5.03.99 2.97-1.71 5.12-1.89 6.73-.52 4.55-2 5.94-4.32 8.88-8.75 11.07-21.32 16.62-35.18 18.17-3.5.39-7.26 2.58-11.91.88-1.96 10.66-5.62 20.74-13.78 28.16l-6.53 4.3c-4.38 2.88-9.96 4.64-15.16 5.63l-23.95-.45c-3.13-.06-4.37.06-7.09-1.19-8.52-3.91-17.99.04-20-3.75 8.19-.38 21.09.06 26.4 2.25l15.49 1.65c2.87.31 4.69-1.27 6.6-1.46 6.7-.67 12.15-2.87 17.7-6.43 3.02-1.93 4.13-4.21 6.32-6.84 4.21-5.04 7.84-11.1 8.2-17.57.05-.96 1.99-2.61 1.68-3.36-.33-.81-2.32-1.69-3.35-1.46-3.57.77-14.89-4.43-33.91-2.77-2.74.24-2.96-.7-5.54-.8l-14.51-.59-14.11-1.49 24.05-.09 14.03.81 25.85.83c3.97 3.11 8.87 3.48 13.23.95 9.62 1.28 17.89-1.29 26.62-5.14 12.27-5.41 20.15-17.24 21.42-30.62-4.25-1.04-8.09.61-12.02.79l-18.08.86-24.43.48c-5.87.12-11.56 1.03-17.27.38-10.03-1.15-20.33-.88-30.12-.43-5.28.24-11.03 2.55-16.4-.91l16.64-.83 23.1-.87c8.62-.32 16.86.2 25.53.21l13.89.02 22.09-1.07 9.35-.43c4.7-.22 10.91-1.47 17.44-2.25l12.18-1.46 9.11-1.7 10.55-1.43c3.08-.42 5.1-.99 8.47-1.63l13.85-2.6 6.34-1.51 14.8-3.25 8.01-1.96 27.61-7.36 14.53-4.79 6.14-1.73c13.13-3.7 24.85-9.86 34.05-20.26 3.03-.34 4.42-2.85 3.74-5.93 4.24-2.29 5.37-5.78 6.95-9.38 3.09-7.04 3.2-20.51-1.96-23.4l-13.71 3.83-8.54 1.86-7.95 1.85-12.75 3.28c-2.19.56-3.63 1.07-6.43 1.63l-12.74 2.58c-2.7.55-4.5 1.23-6.46 1.65l-16.82 3.61c-1.22.26-4.17-.77-4.71 1.56-5.36-.16-11.38 1.72-17.18 3.05l-7.25 1.66-14.86 3.26-8.26 1.66c-5.66 1.14-10.73 2.28-16.62 3.53l-7.12 1.51c-5.86 1.24-11.06 2.22-16.86 3.48l-7.07 1.54c-5.54 1.21-10.61 2.35-15.77 3.28l-17.28 3.1-7.26 1.65-14.07 2.34-7.25 1.8c-7.57 1.88-14.18 1.84-17.85 3.1-2.82.97-4.49 1.03-7.52 1.62l-19.85 3.88c-6.28 1.23-12.49 2.45-19.15 3.53l-24.63 4.01c-7.53 1.22-15.95 2.03-18.73 2.94-4.19 1.37-7.15 1.24-11.62 1.42s-9.38 2.08-13.98 3.28c-10.84 2.84-20.42 8.88-29.54 15.09-13.66 9.3-24.41 20.55-35.08 32.96l-11.09 12.91-12.63 17.5c-1.14 1.58-1.26 3.59-3.54 3.49-.06-1.17-2.02-1.99-3.11-2.09-.46-2.88 2-4.32 3.62-6.51l11.79-15.82-9.89-13.35-6.15-7.77-13.29-14.38c-2.43 2.33-4.15 3.23-6.89 2.39l2.95-4.79c-2.39-4.22-6.32-6.79-10.16-9.71l-16.58-12.61c-16.6-11.16-34.74-19.29-53.43-26.54l-8.38-3.25c-4.43-1.72-27.83-7.18-32.62-7.59l-21.29-1.81-17.98-.38c.67 1.68 1.25 3.31.38 3.55-.92.25-3.2.42-4.43.18.25-1.44.18-2.61-.46-3.48-.91-1.24-3.42-.55-4.28-.8-4.42-1.28-8.84.74-12.58 1.01-5.67.41-10.08-.33-15.54 1.25-2.3.67-5.38 1.34-7.78 1.67l-10.15 1.39-7.74 1.82c-3.41.8-5.8 1.26-8.88 2.29l-13.62 4.58c-24.51 8.24-47.4 19.81-68.26 34.83-3.67 2.64-6.87 6.13-12.01 6.58 13.64-14.33 30.26-23.25 47.18-32.3 11.16-5.97 22.53-9.59 34.5-13.65 49.29-16.74 117.81-18.01 166.19 1.08 12.04 4.75 23.85 8.91 35.08 15.81l26.71 16.39c14.93 12.51 28.03 26.31 41.74 40.1 5.74 5.77 7.26 10.29 9.77 10.08 2.93-.25 2.22-7.15 9.74-5.62 2.63-4.44 6.85-7.86 11.02-11.32 2.77-2.31 4.89-6.34 8.72-7.34 1.04-.27 1.86-2.83 2.73-3.46 9.08-6.53 17.58-14 27.6-18.78s20.63-7.88 31.77-9.86c20.31-3.61 39.9-7.34 60.33-9.43l12.06-2.76c16.92-2.37 32.97-5.91 49.65-9.45l30.55-6.49 15.73-2.58 70.77-14.22 78.95-18.73 53.86-12.39 2.86 3.33ZM370.09 260.74l9.96 1.26 24.28 4.74c3.96.77 7.09 2.04 10.73 2.22 1.29 1.89 4.08 2.24 6.66 2.38 7.03.39 13.48 2.31 20.29 3.33 5.04.76 9.24 1.42 14.12 3 3.43 1.11 7.72.12 10.83 1.41.25.1.82-.04 1.08-.07.35.93 1.24.84 2 .99 6.6 1.36 11.74 6.04 16.98 9.94l10.43 10.66c3.13 3.06 6.49 5.09 9.48 8.54 2.67 3.08 6.32 5.54 9.04 8l15.89 14.38c4.85 1.16 9.88-4.22 13.21-7.25l7.29-6.65 11.45-9.87c1.79-1.54 4.06-4.11 6.68-3.01 2 .84 3.86 2.76 5.07 3.82-1.38 1.73-2.57 2.7-3.79 2.17-.67-.29-1.75-1.25-3.2-2.57-8.59 6.53-15.86 14.33-23.11 22.28-3.43 3.77-7.65 7.16-8.72 12.38 4.88 5.34 7.46 10.88 10.3 16.3 2 3.81 5.78 6.65 6.13 11.11-1.65-.79-4.17-.43-6-.5-1.48-1.67-2.56-3.99-3.41-6.37-1.31-3.69-3.96-6.1-5.73-9.21-11.41-20-32.59-44.07-50.66-58.35-9.43-7.45-19.62-12.1-31.07-15.03l-16.95-2.39-67.19-12.97c-3.39-.65-6.78-1.27-10.03-1.89l-15.99-3.06-10.08-2.12-13.98-2.89c-3.34-.69-6.3-1.37-10.03-2.09l-16.33-3.16c-2.08-.4-4.01-2.26-6.59-1.73-3.73.77-6.93-1.48-10.09-2.05-3.85-.69-6.58-.65-10.21-2.48l-9.62-1.21c-2.98-1.68-6.32-1.05-9.02-2.15-4.85-1.98-9.18-1.81-14.21-2.89-3.97-.85-7.59-1.63-11.8-2.5l-13.13-2.71-8.77-2.02c-4.85-1.12-8.98-2.3-14.07-2.91-1.66-.2-3.7-2.34-6.16-1.94-3.39.55-13.07-2.73-20.2-4.24l-13.13-2.78-8.87-2.11-12.94-3.02c-2.82-.66-5.48-.22-8.37-2.04-1.7-1.07-6.1-1.2-8.08-1.02-3.27 1.42-2.57 5.61-2.68 8.64-.18 5.03-2.12 10.14.49 14.96 6.38 11.8 16.78 23.6 29.43 27.8l14.63 4.86 16.62 4.83c2.63.76 4.83 2.88 8.21 2.63 1.9-.14 3.45 1.25 4.23 2.65 2.24-2.7 9.04 1.56 18.16 3.52l10.42 2.24c8.85 1.9 15.41 3.46 24.4 4.82l18.58 2.81 22.69 2.56c2.04.23 3.93 1.61 6.33 1.71l36.06 1.48-.86-1.16c.4.1.39-.64.82-.42l.69.76 9.27 1.35c8.59-1.19 16.49-1.37 25.04-.83l32.66 2.04c2.58.16 5.23 2.53 8.39 1.95 4.4-.82 8.15 1.31 12.09 2.09 3.17.63 5.71.53 8.64 1.61 10.57 3.88 21.89 5.4 31.52 12.34l-30.75-9.04-7.6-2.09c-4.43-1.22-8.37-1.24-12.74-2.94l-11.9-.92c-5.85-2.06-21.76-3.42-27.35-2.64-4.96.69-9.81 1.25-14.99 1.06l-40.63-1.5-24.95-1.26c.26 4.41-.38 8.74 1.14 12.47 8.42 20.74 32.32 25.32 54.42 22.46l11.04-1.43 19.04-1.3 25.93.59 19.01 1.03c3.99.22 7.97-.63 11.23 1.8l-43.23-1.18c-5.15-.14-9.57 1.83-14.95.69-4.32-.92-8.96 1.12-12.98 1.36-9.95.6-22.97.74-22.86 4.47.19 6.46 3.38 13.07 6.73 18.94 3.58 6.27 10.37 10.36 17.53 12.52 9.09 2.74 18.77.79 28.07.87 3.61.03 7.21 2.09 9.47-2.62 3.22.21 6.48.2 9.28-.64l12.57-3.78c6.01-1.81 11.32-3.74 17.34-.82l-13.08 2.31c-1.12.82-.11 2.8.99 2.74.61-.03 1.7-.21 2.96.81l-12.07.51c-6.43.27-15.6 2.68-22.03 3.26l-12.04 1.09-14.03 2.52c-1.69.3-3.81-1.86-5.72-.5l-14.73-8c-9.79-5.31-16.35-19.27-15.66-30.1l-5.69-2.26c-23.65.07-43.79-13.59-42.87-38.08-5.91.18-12.53-2.13-16.39-2.58l-19.48-2.25-8.31-1.66c-5.95-1.19-11.09-1.65-16.99-3.15l-8.77-2.22-15.73-3.53-20.49-5.65-29.43-9.02c-.92 1.01-2.28 1.96-2.42 2.58s1.52 1.57 1.78 2.34c2.44 7.34 4.87 13.94 8.96 20.18 11.15 17.01 27.15 28.63 47.52 32.49l15.08 2.86 23.57 2.64c7.2 1.97 14.62 2.21 21.96.19 2.64-.73 4.96 1.08 6.96 1.07 3.77-.01 7.72-2.18 11.54.77-9.11 2.94-17.57 1.88-26.6 1.35-11.88-.7-23.55-.08-35.08-2.44-7.64-1.56-14.93-2.06-23.15-2.03 1.5 6.56 6.07 17.47 8.88 20.4l5.9 6.18c8.22 6.47 18.07 11.46 28.49 13.16l12.25 2c7.75 1.27 15.89 2.16 23.72 1.45l15.15-1.38c3.32-.3 7.39-.22 10.79.46 2.48-3.21 5.76-4.72 9.8-2.35-1.89 2.11-4.13.81-5.45 1.14-5.47 2.73-10.4 2.98-16.09 3.52-1.85.18-3.84 1.71-6.12 1.53-3.38-.26-6.81-.79-10.05-.19-6.52 1.2-12.54.36-19.12.07l-10.62-.48c-1.69-.08-2.99-1.92-4.79-1.67-1.52.22-2.81.92-4.1 2.59 7.14 19.33 15.23 32.64 35.23 40.58 2.85 1.13 6.63 1.64 8.97 3.27l20.42.28 11.12-1.72c4.52-.7 9.08-1.58 13.6-3.3.33.55.38 1.63.25 4.08-3.64-.83-6.81 1.68-10.46 2.52l-9.73 2.22c-3.57.81-7.4.15-10.35 3.79 3.79 17.01 12.52 33.46 26.81 43.38 8.06 5.6 16.49 9.67 25.87 11.67 5.13 1.09 10.43 3.73 15.71 2.05 8.36-2.66 14.81-8.33 21.11-14.79 1.68 2.64-.26 4.11-1.99 5.61l-12.76 11.09c-1.91 1.66-3.11 2.72-3.51 4.49-.26 1.17-2.62 1.79-2.2 5.17-2.34-1.94-1.8-3.57-3.24-3.73-.88-.1-1.52 0-2.3.15-2.91-2.83-7.17-1.39-10.87-2.36-8.2-2.15-16.52-4.84-23.49-9.35-8.04-5.2-15.32-11.18-20.53-18.44l-2.58-3.6c-1.51-2.1-1.85-5.32-4.56-6.34l.1-1.19c.19-2.32-1.86-4.5-3.17-6.54-1.41-2.19-.96-5.02-2.75-6.42-1.54-1.2-1.54-3.98-1.97-5.8-1.28-5.51-4.99-7.26-9.92-6.89s-15.63-5.23-19.62-8.67l-4.93-4.25c-.52-.45-.71-1.89-1.12-2.1s-1.52.73-1.84.85c-1.82-1.92-4.57-3.58-5.54-6.09-.76-1.97-5.74-8.59-8.14-9-.81-2.04-2.08-3.96-2.92-6.01l-2.93-7.16-.33-3.1c-.06-.56-.89-1.07-1.81-.72l-.05-1.03c-.08-1.73-.34-4.91-1.99-5.94-3.09-.98-5.49-2.07-8.09-3.97l-12.96-8.91c-1.07-1.74-2.47-2.81-3.98-4.11.32-2.09-3.26-6.18-6.19-8.96-.71-1.91-1.71-4.38-2.86-5.94.5-3.78-3.28-10.57-3.91-11.1-1.47-1.23-2.83-2.35-4.92-3.21-15.59-6.37-27.81-18.33-36.16-32.68l-3.12-4.05c-.29-3.71-2.1-6.94-3.82-10.02.04-.31-.22-.81.32-1.26l-5.24-11.79c-2.12-4.77-6.61-7.79-10.29-11.83-2.43-2.67-4.34-5.91-6.93-8.01-1.37-4.78-2.86-9.37-6.2-13.16-1-5.14-1.01-10.77-.35-15.96l4-10.98c2.43 1.33 4.98.95 7.75 1.58l34.45 7.87 75.88 15.96 26.6 5.47 30.21 6.93 58.23 11.84 20.85 3.86c4.21.78 7.93 1.66 11.82 2.15Zm27.88 105.21c-1.87-.84-2.46 1.56-.21 1.2 1.09.27 1.46-1.06.21-1.2" class="cls-1"/><path d="M370.09 260.74c-3.89-.49-7.62-1.37-11.82-2.15l-20.85-3.86-58.23-11.84-30.21-6.93-26.6-5.47-75.88-15.96-34.45-7.87c-2.76-.63-5.32-.25-7.75-1.58l-4 10.98c-.08-5 .85-10.24 5.93-13.55l63.18 14.02 64.71 13.36 59.02 12.99 57.76 12.31c5.56 1.18 10.56 2.99 16.22 3.67 1.52.18 2.61 1.05 2.98 1.87Zm-73.18 264.17c0 1.2-.48 2.26-2.34 2.96-6.22 2.32-10.99 11.96-5.96 17.48 6.43 7.06 30.98 1.89 33.32 3.25.68.4 1.19 1.73.7 3.1l-3.45 9.67c-1.77 4.97-4.81 9.19-6.46 14.36-.46 1.44-1.59 2.3-2.61 2.47-.48-2.63 1.9-4.82 2.67-7.3 3.35-10.77 8.83-14.96 6.75-18.28-3.36-2.77-8.59-1.14-12.43-1.67-10.86-1.51-19.73.17-21.57-5.42-.98-2.97-1.19-8.13 0-11.11 1.96-4.92 7.3-7.52 11.38-9.51m170.04-245.84c-3.11-1.29-7.4-.3-10.83-1.41-4.88-1.58-9.08-2.24-14.12-3-6.81-1.02-13.26-2.94-20.29-3.33-2.58-.14-5.37-.49-6.66-2.38 17.56.89 35.18 4.85 51.89 10.11Z" class="cls-2"/><path d="m1171.06 527.66 4.12 2.28-2.13 5.17 4.3 4.47c3.11 3.23 6.59 3.25 10.73 1.23-2.08 4.67-7.51 4.13-10.94 2.54l-.58-.27c-5.36-2.49-6.34-8.48-4.06-13.91l-5.72-.08c.97-2.32 3.38-.78 4.27-1.44Z" class="cls-1"/><path d="M339.14 587.18c-5.47 4.85-11.82 8.99-19.43 11.61-3.59 1.23-10.06-1.14-11.83-4.38-2.04-3.72-1.26-14.74 2.41-15.31l-1.23 6.93c-.79 4.47.67 8.11 4.03 10.38 8.56 5.79 16.33-6.79 26.06-9.24Z" class="cls-2"/><path d="M1225.01 534.95c1.07-.1 2.24-.22 3.12.67-1.62.97-2.54 0-3.12-.67m0 0c-.63-.07-1.14.39-1.2 1.2-2.47-2.19-5.38-4.98-8.62-5.88-.29-.99-.89-1.29-2.21-1.88 2.46-.4 5.64-.68 8.43.39 2.42.93 3.32 4.13 3.59 6.16Z" class="cls-1"/><path d="M1370.39 275.82c-1.25 5.31-5.34 11.1-8.17 15.48-1.32-.46-2.16-1.77-2.12-1.84.23-.46 1.86-.85 2.55-.9l3.08-6.86c1.28-2.86 1.48-5.42.76-8.65 2.07-.12 1.71 1.45 1.81 2.07s1.08 1.02 2.09.69ZM728 688.93c-.63 1.32-3.34 1.07-4.8 1.27-1.35 2.4-3.53 5.79-6.2 3.61l-5.01-4.01zm673.91-456.98c2.72-11.28 0-19.09.23-20.27.07-.34.18-.81.98-.73 2.35 4.88 2.56 15.47-1.21 21" class="cls-2"/><path d="M1087.8 556.78c-2.16-.15-3.5-.45-4.64-1.87-.76-.95-3.26-.94-2.67-3.47 4.03 2.4 6.92 3.45 11.44 4.14-.62 2.14-2.73 1.29-4.13 1.2" class="cls-1"/><path d="M300.89 522.89c2.49-2.9 6.47-3.92 9.9-6.14s6.12-4.6 9.7-5.65c-.3 2.81-3.26 3.44-5.45 4.94-4.54 3.1-8.84 6.31-14.15 6.85m-194.04-277.7c-3.54-2.86-5.22-8.13-6.2-13.16 3.34 3.79 4.83 8.38 6.2 13.16m1088.41 197.98c-.27 1.43-2.34 3.68-.83 5.56 1.59 1.99 7.98-3.62 12.57-2.74-1.24 1.71-3.74 1.45-5.82 2.19-3.22 1.14-5.46 3.38-9.33 2.96.6-4.9 1.06-8.33 3.41-7.97m161.93-144.08c-2.13 3.3-4.2 6.42-7.09 9.02 1.6-4.93 4.02-9.9 7.09-9.02" class="cls-2"/><path d="m1112.95 554.37-3.85 1.66c-1.19-.24-2.45.57-4.26-.51l10.1-3.99c0 2.05-1.85 1.84-1.98 2.84Z" class="cls-1"/><path d="M904.14 619.15c-2.3 3.59-4.22 7.64-9.18 7.82l5.45-5.57c1.24-1.26 1.95-2.51 3.73-2.25M487.9 558.33c-3.82-.61-7.85-.34-11.02-3.2 3.88-.01 7.71 1.35 11.02 3.2m28.06-241.2c-2.72-2.46-6.37-4.92-9.04-8-2.99-3.44-6.35-5.48-9.48-8.54l-10.43-10.66c6.43 4.77 12.1 10.19 18.35 15.71l7.47 6.6c1.53 1.35 3.3 2.63 3.14 4.88Zm34.16 304.77c-1.71.33-3.07-.29-4.25-1.29-1.36-1.16-1.85-2.53-1.43-4.24 2.39 1.3 3.79 3.72 5.68 5.53m430.01-61.69-5.73 2.33c-4.68 1.9-9.56 3.23-14.49 2.38 3-1.45 6.3-1.26 9.88-2.2l10.33-2.51Zm415.11-314.08c.29-3.06 2.38-5.22 3.74-8.18.87-1.89.88-4.21 2.86-4.94.94 2.7-.65 5.32-2.24 7.4l-4.36 5.71ZM180.92 339.14c-2.11-1.85-3.83-7.53-3.91-11.1.63.53 4.41 7.32 3.91 11.1m760.02 236.87c-.84 1.65-1.88 3.83-3.91 3.96.07-.85-.17-2.31.24-3.33.38-.96 2.81-.77 3.67-.62Zm-568.76-10.79-13.34 9.66c-1.29.94-2.57 1.26-3.97.99l4.1-2.94c4.3-3.08 8.28-6.43 13.2-7.72Zm-23.94-74.19c.01 1.04-.04 2.55-.88 2.85l-3.3 1.19c-4.32 3.26-7.86 7.74-13.06 7.9l12.45-8.52c1.51-1.01 2.64-1.83 2.48-3.28.78-.15 1.42-.25 2.3-.15Zm171.62 94.11c-2.18-2.96-4.34-5.78-6.01-9.12 1.96-.18 2.28 1.41 3.11 3.01l2.91 6.11ZM284 449.9c-3.17-3.33-5.83-8.15-5.92-12.96 1.79 1.4 1.34 4.23 2.75 6.42 1.31 2.04 3.36 4.22 3.17 6.54m-61.91-60.93c-1.83.78-4.93-7.74-5.07-10.98.91-.36 1.75.15 1.81.72l.33 3.1zm24.48 26.61c-3.17-.38-6.7-2.39-7.89-5.51.32-.12 1.43-1.06 1.84-.85s.6 1.65 1.12 2.1l4.93 4.25Zm-13.42-11.6c-3.32-2.44-6.62-5.18-8.14-9 2.39.4 7.38 7.03 8.14 9m189.87 128.98-4.16 2.85c-2.1 1.38-3.59 3.08-5.92 3.13l4.44-3.51c1.97-1.56 3.42-2.55 5.64-2.46Zm-19.05 10.88c-1.42 3.58-5.57 5.22-9.09 6.07l4.94-3.02c1.92-1.17 2.37-2.45 4.15-3.05M132.8 288.11c-2.09-2.71-4.24-6.53-3.82-10.02 1.72 3.08 3.53 6.31 3.82 10.02m258.05 264.57c-2.53 2.98-5.99 5.88-9.89 6.22 3.11-2.24 6.43-4.58 9.89-6.22M129.3 276.82c-2.64.62-4.17-6.26-5.24-11.79zm77.61 90.23c-4.76-1.71-10.25-4.53-12.96-8.91zm84.14 93.98c-3.49-2.03-5.89-6.25-7.15-9.94 2.71 1.02 3.06 4.24 4.56 6.34l2.58 3.6ZM189.97 354.04c-2.8-2.41-4.93-5.58-6.19-8.96 2.93 2.78 6.51 6.87 6.19 8.96M327.1 506.15c.48-1.46 1.58-2.62 2.89-3.13-.2 1.95-1.7 2.24-2.89 3.13m524.92 149.84c-.33.95-1.06 1.72-2.02 1.99-.09-.36-.1-.98.14-1.38.41-.67 1.29-.51 1.88-.61M216.98 376.96c-1.53-1.51-1.92-3.82-1.99-5.94 1.64 1.03 1.91 4.21 1.99 5.94M849 658.01c-.73.99-1.81 1.93-3.01 1.97.37-1.34 1.63-2.06 3.01-1.97M941.02 575c.09-1.19.99-2.28 2.04-3.05-.31 1.44-.51 2.62-2.04 3.05m-471-295.01c-.76-.16-1.64-.07-2-.99.7-.1 1.7.19 2 .99M845 660.01c-.88 1.33-2.44 1.91-4 1.97.9-1.25 2.45-1.92 4-1.97m-300.76-44.13c-.44-.23-.92-.5-1.24-.89.48.19.93.48 1.24.89" class="cls-2"/><path d="M1156.73 482.99c3.41.4 5.01 1.31 7.24 2.95.98.72 4.69-1.6 5.15 2.65-2.89-1.4-4.5 1.14-6.51 2.02l-10.55 4.61c-3.9 1.7-7.66 2.54-11.1-.15l-2.42-.12c-4.35-.21 3.24 4.42 1.25 5.29l-19.94 8.72c-2.54 1.11-6.89 2.13-9.78 1.96-4.28-1.26-7.92-3.06-12.46-1.23 2.31 2.79 4.49 3.25 7.97 4.08-2.6 2.71-5.16 3.18-8.52 3.44l-4.06 1.75-16.59-1.95c-1.64-.19-2.96-1.67-3.7-2.33-.96-.87-1.67-4.15.01-4.91l19.35-8.77 47.93-20.16 24.63-10.35 57.44-24.44c7.4-3.15 23.25.28 23.59 4.86.1 1.38-.62 3.32-3 4.01-7.75 2.24-12.13-4.53-15.49-.75 3.47 1.08 5.82 2.18 6.99 4.1-1.85 2.51-4.31 2.04-6.03 2.85-5.69 2.68-10.71 5.5-17.05 6.94l.03-6-2.38 3.62c-1.52 2.32-6.02-3.3-11.01.25-.14.65.41 2.27-.28 3.03-.43.48-2.56.13-1.92 2.64 3.68-2.29 6.36-3.4 9.68-1.42-1.24 3.18-4.62 3.44-7.07 4.74-4.71 2.51-7.96 3.21-12.64.57-2.73-1.33-7.65-.56-10.61-.05 3.82 1.4 6.15 3.91 10.53 4.12-4.21 3.79-10.36 6.51-15.84 3.91-4-1.9-8.32-2.17-12.84-.48m-36.66-11.71 10.32 3.12c3.25.98 6.72-.21 9.08 4.19-5.19.12-9.21 3.58-13.8 4.89-7.78 2.23-15.92-.86-22.58-4.2-1.53-6.43.41-9.73.17-10.66-1.32-5.13-18.73-7.11-29.03-6.65-1.28-7.25-3.12-12.85-.91-20.5 1.46-5.05 6.28-4.08 9.91-3.45 4.35.75 7.8 1.8 8.53 6.05-3.58-.14-5.71.59-7.9 1.39 1.89 2.13 3.92 1.23 6.13 1.39l3.44.25c.89.06 1.23 3.2.33 3.78-3.32-.09-7.51-.85-9.24 2.99 4.12 1.46 7.58.62 11.26.98 2.29 5.73 7.46 6.98 11.83 9.43l12.47 7Zm-29.86 79.64c-5.06-2-9.9-3.16-13.4-7.96 1.26-2.85 3.48-4.59 6.7-5.66 4.33-1.43 9.35-5.75 14.11-4.65 6.43 1.49 19.35 11.33 21.58 1.19 5.57 1.53 9.73-.11 14.59-2.03l9.95-3.93 7.73-2.53 1.52 2.18c.2.28-1.32.63-1.82.86l-18.4 8.32c-3.32 1.5-7.62 2.47-10.42 4.52s-5.03 1.88-8.21 3.28l-11.63 5.1-.76 2.68c-.3 1.07-2.67.61-3.49.76-3.7.71-5.53-1.15-8.04-2.14Z" class="cls-3"/><path d="M1053.49 508.42c-5.39 7.28-34.49 9.69-39.27 8.05-3.26-1.12-7.33-2.76-10.6-1.04s-4.44 6.01-6.9 8.27l-9.5 8.71c-4.82 4.42-20.1 9.72-22.29 4.7 10.9-.48 19.29-6.04 26.06-14.16l7.24-11.22c-6.8-4.04-12.43-8.03-17.14-13.84-5.37-6.62-21.55-14.25-22.15-15.5-.31-.66.9-2.38 2.11-1.65l13.86 8.25 12.58 11.47 16.88 11.38c3.16-1.2 6.09-.46 8.88.82 3.99 1.83 8.6-.16 12.63-.4 3.49-.2 6.26.29 9.29-.98l14.14-5.95c1.14-.48 2.69-.23 3.34.35.56.5 1.45 1.92.84 2.74" class="cls-1"/><path d="M1182.59 504.5c-2.18-2.86-.52-8.32.44-11.19 5.73-1.54 11 3.47 17.83 1.46-3.5-1.24-5.91-3.35-10.52-4.11.33-1.81 1.28-3.65 2.5-4.59 2.6-2 15.69-.53 22.64 3.28-7.85 3.64-12.24 12.99-11.73 21.95-.07.98-2.83 1.07-4 .54-1.06-.49-1.92-2.15-3.12-3.71-4.35 1.1-11.06.29-14.04-3.63m57.26 30.45-8.17.2c-1.93-1.9-4.32-3.49-7.43-5.41 5.23-2.29 11.12-2.33 15.19-6.33l7.54-7.41c1.77-1.74 2.81-3.37 3.1-5.46s-2.39-3.53-3.7-4.89c-.35-9.25-8.36-8.64-1.26-13.34 1.55-1.03 3.53.53 5.11 1.08 2.81.98 3.29.71 4.56 3.39.85 1.81.37 2.8-.25 5.26l-1.79 7.07c-.78 3.08.23 6.15-3.41 8.34-2.89 1.74-5.97 4.72-8.16 7.27l1.39 2.13c.9 1.38-5.63 2.59-2.7 8.1Z" class="cls-3"/><path d="M1222.17 500.09c-2.12 2.65-5.91 15.91-3.48 18.8.37 2-5.51 2.37-6.19-.23-1.6-6.18-.16-12.34-.51-18.71-.27-4.93 2.58-10.01 7.81-9.6l9.65.75c-1.74 3.96-4.84 5.93-7.28 8.98Zm-126.31-32.54c-12.52 6.84-23.46 9.25-35.29 2.95l11.41-3.59c1.93-.61 4.73-2.99 7.02-2.59l16.86 3.24Z" class="cls-3"/><path d="M1098.67 403.55c-4.6 4.7-17.85 11.58-20.75 11.82-1.57.13-1.97-.98-1.8-1.89.2-1.07.31-1.16 1.85-1.46 11.07-3.34 15.26-13.43 21.47-13.07.96.06 1.53.57 1.15 2.44-.19.94-.99 1.31-1.92 2.16m-58.83 15.42c-.4-.42-.6-1.4-1.14-1.79 1.44-.14 4.51-.64 5.95-.09 3.53 3.65 6.71.82 10.41.44l11.78-1.19c.66-.07 2.7.73 2.95.12.27-.66.71-1.44 1.36-1.96 1.16-.95 2.63-.55 3.36.39.44.57.16 1.61-1.09 2.79l-8.28 1.41c-3.27.56-5.18.3-8.51 1.45-7.85 2.71-13.66-3.93-16.78-1.58Z" class="cls-1"/><path d="M1106.34 459.31c-3.09-.88-4.09-3.69-6.08-5.5 3.99-2.2 9.79-3.87 13.75-.89.13 3.19-4.67 7.09-7.67 6.39" class="cls-3"/><path d="m1148.32 506.04-24.59 10.53c-.33-.64-.92-1.16-1.29-1.54l25.49-11.95c.71-.33 1.99.1 2.07.51.14.69-.33 1.88-1.68 2.45" class="cls-1"/><path d="m1175.18 529.94-4.12-2.28c3.97-3.2 9.83-5.76 15.35-7.72 1.29 1.31.71 3.86-.56 5.38-2.18 2.62-8.69-.18-10.67 4.62" class="cls-3"/><path d="M961.73 538.4c-3.52 2.23-19.61-7.34-19.42-7.03-.4-.63-.07-3.17.85-3.3 4.63 2.49 8.36 5.57 13.17 6.61 2.15.47 2.91.58 5.39 3.72Zm201.62-15.62c.65-1.56.08-3-.15-3.38-.21-.36 2.08.35 2.52.16l10.21-4.56c2.73-1.22 5.39-3.75 8.53-.8l-21.11 8.59Zm8.42-22.96c-2.4.12-3.88.26-6.16-.43l3.35-8.57c.52-1.33 5.49-.64 5.3.99-.69 2.96-2.73 4.96-2.49 8.02Zm-238.3 22.75c3.38 2 9.24 3.18 7.33 6.89-.3.59-1.59.84-2.39.22l-12.33-9.41c3.7-2.09 5.21 1 7.4 2.29Z" class="cls-1"/><path d="M1083.03 527.93c1.1.6 2.11 1.25 4.14 1.41-.22-2.17-1.3-2.59-2.21-3.49l10.78 1.7c-3.3 3.16-6.74 2.96-10.23 4.1-2.23.73-4.47 2.65-6.65.79 1.63-.48 2.88-.7 3.63-1.48.69-.71.67-2.13.54-3.03m130.91-51.84c-3.03 3.88-8.17 6.95-13.72 5.09 4.43-2.52 8.04-4.7 13.72-5.09m12.45 27.81c-2.78 4.81-.58 10.16-1.84 15.15-1.71-10.75-.72-22.69 9.59-23.55z" class="cls-3"/><path d="M1072.13 372.27c-6.82 1.06-17.21 1.98-20.36-1.43 7.28.98 13.23 1.22 20.36 1.43m178.33 105.7c-1.85.01-3.96.83-6.15-1.04 2.68-1.91 5.04-.71 6.89.47.2.13.4.36.53.62 2.81-.29 6.22.48 7.42 4.12-3.49-.26-5.61-2.1-7.95-3.4-.3-.17-.54-.41-.73-.77Z" class="cls-1"/><path d="M1098.98 522.75c-4.07.67-7.99-.68-12.08-1.26l11.63-.49c.81.58.53 1.57.45 1.74Z" class="cls-3"/><path d="M1088.86 433.66c-3.92.6-7.84.49-11.88.08v-1.47c3.67-.69 6.81.31 11.88 1.39" class="cls-1"/><path d="M1222.15 473.77c-.29-.53-.3-1.95 0-2.62 1.78-.38 3.36-.98 5.11-2.38 1.18 1.59.13 2.77-.49 3.53-1.07 1.31-2.79 2.14-4.61 1.47Z" class="cls-3"/><path d="M1235.63 520.01c-1.62 2.11-4.03 1.44-4.93-.2s-1.46-3.39-.18-5.02c1.17 2.63 2.07 3.28 5.1 5.22Zm-159.69 30.63c.75-1.32 1.88-.6 2.07-.14.23.59.03 1.18-.51 1.51-.39.23-1.74.16-1.55-1.37Z" class="cls-1"/><path d="M1245.66 524.48h.68l.65.02-.65.02h-.68l-.65-.02z" class="cls-3"/><path d="m1241.005 475.5.502-.502.502.502-.502.502zM912.13 442.03l-1.16.09c-.32-1.2 1.25-1.54 1.16-.09m2.12.91-1.52-.9c.59 0 1.13.44 1.52.9m344.755 40.56.502-.502.502.502-.502.502z" class="cls-1"/><path d="M547.18 369.72c.21.98.25 1.92.17 2.81-.18 2-2.08 1.19-3.22 1.52l-16.53 4.78c-34.53 10-67.68 23.74-98.86 41.92-2.47 1.44-3.71 3.28-6.61 4.69-8.03 3.93-15.29 9.81-21.96 15.52l-13.54 11.59c-1.77 1.52-3.47-3.68-6.05-3.51-1.32.09-2.54 1.12-2.36 2.82.31 2.84 2.95 4.69 4.92 6.17l-.63 15.52-17.83 11.34c-3.43 2.18-6.51 5.23-11 4.69.4-1.77 1.6-2.83 3.51-4.49L369.95 474c1.73-1.5 3.67-2.97 1.99-5.61-6.31 6.47-12.76 12.13-21.11 14.79-5.27 1.68-10.58-.95-15.71-2.05-9.39-2-17.81-6.07-25.87-11.67-14.29-9.92-23.02-26.37-26.81-43.38 2.95-3.64 6.78-2.97 10.35-3.79l9.73-2.22c3.65-.83 6.81-3.35 10.46-2.52.13-2.45.08-3.52-.25-4.08-4.52 1.72-9.08 2.6-13.6 3.3l-11.12 1.72-20.42-.28c-2.33-1.62-6.11-2.13-8.97-3.27-20-7.94-28.09-21.26-35.23-40.58 1.3-1.67 2.58-2.37 4.1-2.59 1.8-.26 3.1 1.59 4.79 1.67l10.62.48c6.58.3 12.6 1.13 19.12-.07 3.24-.6 6.67-.06 10.05.19 2.28.17 4.27-1.36 6.12-1.53 5.69-.54 10.62-.8 16.09-3.52 1.32-.32 3.56.98 5.45-1.14-4.04-2.37-7.31-.86-9.8 2.35-3.4-.69-7.47-.76-10.79-.46l-15.15 1.38c-7.83.71-15.97-.18-23.72-1.45l-12.25-2c-10.42-1.7-20.27-6.69-28.49-13.16l-5.9-6.18c-2.8-2.94-7.38-13.84-8.88-20.4 8.22-.03 15.51.47 23.15 2.03 11.53 2.36 23.2 1.74 35.08 2.44 9.03.53 17.49 1.6 26.6-1.35-3.82-2.95-7.77-.78-11.54-.77-2 0-4.31-1.8-6.96-1.07-7.34 2.02-14.76 1.78-21.96-.19l-23.57-2.64-15.08-2.86c-20.36-3.86-36.37-15.49-47.52-32.49-4.09-6.24-6.52-12.84-8.96-20.18-.26-.77-1.91-1.72-1.78-2.34s1.49-1.57 2.42-2.58l29.43 9.02 20.49 5.65 15.73 3.53 8.77 2.22c5.9 1.49 11.04 1.96 16.99 3.15l8.31 1.66 19.48 2.25c3.85.44 10.47 2.76 16.39 2.58-.92 24.49 19.22 38.14 42.87 38.08l5.69 2.26c-.7 10.82 5.87 24.78 15.66 30.1l14.73 8c1.91-1.37 4.03.8 5.72.5l14.03-2.52 12.04-1.09c6.43-.58 15.59-2.98 22.03-3.26l12.07-.51c-1.27-1.02-2.35-.85-2.96-.81-1.09.06-2.11-1.92-.99-2.74l13.08-2.31c-6.02-2.92-11.33-.99-17.34.82l-12.57 3.78c-2.8.84-6.07.85-9.28.64-2.27 4.72-5.86 2.65-9.47 2.62-9.3-.08-18.99 1.88-28.07-.87-7.15-2.16-13.94-6.25-17.53-12.52-3.35-5.87-6.54-12.47-6.73-18.94-.11-3.73 12.91-3.87 22.86-4.47 4.02-.24 8.66-2.27 12.98-1.36 5.38 1.14 9.8-.83 14.95-.69l43.23 1.18c-3.26-2.43-7.24-1.58-11.23-1.8l-19.01-1.03-25.93-.59-19.04 1.3-11.04 1.43c-22.09 2.86-45.99-1.72-54.42-22.46-1.52-3.73-.88-8.06-1.14-12.47l24.95 1.26 40.63 1.5c5.18.19 10.04-.37 14.99-1.06 5.58-.78 21.5.58 27.35 2.64l11.9.92c4.37 1.7 8.31 1.72 12.74 2.94l7.6 2.09 30.75 9.04c-9.63-6.94-20.95-8.46-31.52-12.34-2.93-1.08-5.47-.98-8.64-1.61-3.95-.78-7.7-2.91-12.09-2.09-3.16.59-5.81-1.78-8.39-1.95l-32.66-2.04c-8.55-.53-16.44-.36-25.04.83l-9.27-1.35c-.32.07-.63.3-.65.81L282 294.37c-2.4-.1-4.29-1.48-6.33-1.71l-22.69-2.56-18.58-2.81c-9-1.36-15.55-2.91-24.4-4.82l-10.42-2.24c-9.12-1.96-15.92-6.22-18.16-3.52-.78-1.4-2.33-2.79-4.23-2.65-3.38.25-5.58-1.87-8.21-2.63l-16.62-4.83-14.63-4.86c-12.66-4.2-23.06-16.01-29.43-27.8-2.6-4.82-.67-9.93-.49-14.96.11-3.03-.59-7.22 2.68-8.64 1.98-.18 6.38-.05 8.08 1.02 2.89 1.82 5.55 1.38 8.37 2.04l12.94 3.02 8.87 2.11 13.13 2.78c7.13 1.51 16.81 4.79 20.2 4.24 2.47-.4 4.51 1.75 6.16 1.94 5.09.61 9.22 1.79 14.07 2.91l8.77 2.02 13.13 2.71c4.21.87 7.83 1.65 11.8 2.5 5.03 1.07 9.36.91 14.21 2.89 2.7 1.1 6.04.47 9.02 2.15l9.62 1.21c3.63 1.83 6.37 1.78 10.21 2.48 3.16.57 6.36 2.82 10.09 2.05 2.59-.54 4.52 1.33 6.59 1.73l16.33 3.16c3.72.72 6.69 1.4 10.03 2.09l13.98 2.89 10.08 2.12 15.99 3.06c3.26.62 6.64 1.24 10.03 1.89l67.19 12.97 16.95 2.39c11.45 2.93 21.64 7.58 31.07 15.03 18.07 14.28 39.25 38.34 50.66 58.35 1.77 3.11 4.42 5.53 5.73 9.21.85 2.39 1.93 4.7 3.41 6.37ZM317.99 294.3c-.44-.23-.42.52-.82.42zM270.5 331l-.5.5.5.5.5-.5zm155.92 80.04-23.29-1.52c-3-.2-6.81-1.52-9.45-3.04l-10.95-6.27-9.64-9.38-4.75 2.26c-1.93-3.78-4.62-5.05-7.87-6.53-6.65-3.01-15.82-8.07-17.43-4.98-.22.43-.13 1.28.78 1.65l11.41 4.57c4.02 3.06 8.45 5.77 13.76 5.7 7.37 9.41 18.09 14.62 29.34 18.05 7.95 2.42 15.29 3.81 23.84 1.27 1.8-.47 5.21 1.15 6.78-.42l.06-2.85c.04-1.76-1.8 1.52-2.6 1.47Zm-81.6-1.96c-3.59-2.31-7.73-2.94-10.23 1.17 3.66.24 6.39.36 10.23-1.17m-30.61 6.61c6.19.24 11.78-3.5 8.54-5.42-4.64 2.5-9.11 1.41-8.54 5.42" class="cls-2"/><path d="m622.02 423.36-9.09 1.25-7.88 1.9c-5.35 1.29-10.16.92-15.36 3.21l-7.36.72-2.05 2.35-3.38-1.04-25.49 6.5c-3.19.81-6.12 2.46-9.36 2.04l-6.48 2.26c-4.3 1.5-8.29 1.94-12.17 3.37l-18.08 6.65-14.65 6.21-23.94 11.07-28 15.75-10.79 7.36-14.07 10.86c-1.68 1.3-4.03 3.17-6.11 3.7-3.12.79-8.15 1.05-11.22-.14-9.16-3.55-13.16-14.27-9.18-22.89 1.32-2.85-.27-6.29.35-9.13 1.04-4.73 1.12-9.32 1.53-14.38s10.46-12.86 16.08-17.72c9.5-8.21 19.99-13.89 30.35-20.35 8.38-5.22 16.64-9.63 25.46-13.86 4.5-2.16 8.98-3.38 13.47-5.72l3.88-2.02c11.38-5.9 23.43-9.46 35.75-13.27l12.97-4.01c3.44-1.07 6.25-1.7 9.66-2.62l15.59-4.2c6.65-1.79 12.68-2.92 19.45-4.43l18.49-4.13 11.55-1.5c3.57-.46 5.92-1.12 9.36-1.64l8.81-1.33c3.04-.46 5.97-1.87 8.67-1.99 12.04-.51 19.6-2.49 23.99-2.79l17.14-1.19 21.02-1.14c5.78-.31 11-1.23 16.59-1.22h21.46c4.41.01 8.45-1.18 13.07-.94l65.88 3.4c3.38.17 6.27 1.64 10.16 1.92l18.59 1.36c5.92.43 11.4 1.45 17.33 2.72l7.97 1.72 18.05.98c2.3.12 4.05 1.35 5.54 2.38 10.89 1.45 20.83 4.64 31.51 7.22l6.69 1.61c29.85 7.21 58.53 17.52 86.44 30.19l15.37 6.99c3.37 1.53 6.8 3.84 9.3 6.61l7.2 7.96c5.46 3.97 9.65 8.86 14.05 13.91 2.77 3.17 5.2 4.9 4.5 9.67-.52 3.57-3.66 5.77-7.37 7.97l-6.14 3.64-21.53 11.58c-.66.36-1.51 2.73-2.02 2.43l-3.26-1.94c-3.78.71-8.46-2.33-12.29-4.15l-23.85-11.29c-7.19-3.41-14.34-5.74-21.82-8.34-3.22-1.12-5.33-3.05-9.2-3.15-2.73-.07-5.83-1.54-8.18-2.69-5.04-2.47-11-4.07-16.81-5.7l-27.12-7.61-8.24-1.8-13.1-3.06-12.46-.88-6.97-2.4-17.76-2.62-8.7-2.09-21.82-2.48-92.67-4.7c-2.03 1.71-4.15 1.29-6.39 1.27l-17.86-.12c-5.36-.04-10.6 1.91-16.11.79-3.13-.64-5.34 1.06-7.12 2.75-3.9-1.12-8.15-.63-12.11-.39-11.78.7-24.73 3-37.75 4.78Zm152.12-20.18c-3.02-.19-4.85.05-5.81-.85-.76-.71-1.47-2.99-1.22-4.33 1.59-8.72-1.44-12 1.23-14.08l.73-10.73c.16-2.3 1.5-3.62 3.97-3.11.99.21 2.39-.01 2.52-.72.1-.55.25-1.86-.05-2.45-.25-.5-1.62-.64-2.52-.67l-22.91-.76c-.83 5.56 6.38 2.83 6.06 8.6l-1.26 22.56c-.09 1.64-.64 3.75-1.62 4.26-1.11.58-2.59.72-4.44.29-.56 1.05-.76 2.27-.7 3.97l22.73.93 3.29-2.92Zm-121.24 1.57c-2.9.07-5.46.81-6.8 3.16.57 1.31 2.54 3.07 3.37 2.73l3.59-1.47c8.24.08 18.53-1.42 18.73-1.81.31-.59.1-2.22 0-2.82-.17-.99-6.39.53-7.36-3.6-1.67-7.15 1.38-12.87 4.99-18.58 3.29-5.21 6.19-9.56 12.77-13.48l-18.2-.63c-.66 2.37-.35 4.05.7 4.42l2.54.9c1.78 1.82-.7 3.81-1.27 5.13-1.32 3.04-1.83 5.46-5.13 7.13l-5.8-5.82c-1.16-1.16-1.94-2.12-1.96-3.47-.04-2.9 6.44-4.34 3.72-6.65-2.57-2.18-6.77.2-9.93.65-5.59.79-11.36-1.13-16.37 3.92 7.47 2.02 10.97 5.41 14.46 10.61 3.89 5.79 7.54 6.92 7.94 19.69Zm230.03 13.64 2.44-10.56 3.01-12.03c1.32-5.27 3.01-10.88 9.86-10.07.85.1.64-1.38.52-2.02-.3-1.54-2.06-.71-2.64-.89-6.34-3.91-16.48-4.18-16.98-3.31-.4.69-.21 2.47.47 3.2.41.44 1.77.68 2.42 1.01 2.53 5.85 1.26 15.33-2.71 16.98-3.65-6.48-6.99-10.86-9.27-17.03-4.34-11.79-11.51-8.31-16.66-10.04-2.15-.72-2.4-1.44-3.88-.44-1.4.94-2.07 2.74-.64 3.9 1.64 1.33 3.6 2.45 4.76 4.19-.15 7.22-2.88 13.66-4.65 20.65-2.29 9.03-8.91 5.72-8.98 7.67l-.11 3.07 16.77 2.59c1.24.73 2.64 1.01 2.98 0 1.61-4.68-6.49-4.91-5.29-9.8l2.14-8.76c.65-2.64 1.05-5.02 3.39-6.69l14.48 26.62c1.4 2.57 7.9 4.66 8.57 1.75ZM715.8 395.88c4.24-.37 7.17-5.51 6.49-8.87-.77-3.79-4.06-7.24-8.13-6.85-3.55.34-6.7 2.6-8.53 5.53-1.56 2.49.02 5.81 1.59 7.49 2.03 2.18 4.29 3.08 8.58 2.7m100.8-7.72c-1.3-3.69-8.53-5.35-11.38-3.44-3.82 2.56-5.45 5.93-4.01 9.44s4.47 5.52 8.66 4.76c2.41-.44 4.99-1.14 6.05-2.65 1.27-1.81 1.84-4.85.69-8.11Zm-244.19 34.83c1.3-2.13-.3-4.49-.88-6.47l-2.06-7.04c-.44-1.52-3.74.59-3.73 2.45.03 4.6-2.27 8.17-5.74 9.75-2.96 1.34-8.12 2.31-10.1-1.4-1.13-2.12-2.24-5.49-2.83-8.02l-3.59-15.41c-.5-2.14 3.35-4.81 5.11-4.91.04-1.77-1.91-2.92-3.38-2.56l-18.2 4.43c-1.48.36-2.23.86-2.84 1.8-2.26 3.49 6.42.07 8.35 7.85l5.54 22.31-5.77 5.29c3.79 2.26 6.8.04 10.05-.43 10.19-1.46 17.93-7.72 30.08-7.63Zm34.2-17.41c3.04-2.41 3.82-4.32 3.65-7.12-.11-1.87-.94-4.52-3.58-5.18l-7.25-1.81-4.67 4.08c-1.77 1.55-1.41 6.6.09 8.61 2.54 3.4 8.74 3.8 11.75 1.41Zm326.67 11.09.74-8.62c-2.95-2.98-9.1-3.88-12.25-1.72s-4.02 4.28-3.98 7.17c.04 2.56 1.37 3.98 3.88 6.21 2.98 2.65 11.18 1.89 11.6-3.04Zm38.11 21.61c3.02-10.65 2.14-18.29 13.85-23.82 4.31-2.03 9.94 1.41 12.04 4.92l.66 10.2c.97 2.51 5.42 1.5 6.17-.47l4.35-11.37c-1.75-.9-3.32-1.04-5.41-.81-3.54-4.55-8.63-5.96-13.76-7.54-5.75-1.78-11.54-2.84-17.07 1.14-11.65 8.38-12.37 12.57-10.93 27.9l3.92 5.38c8.42 6.98 19.47 9.35 30.21 7.86 2.4-12.76 8.98-6.61 11.58-12.06l-21.95-8.04c-.76 2.72.71 3.84 1.68 5.86.91 1.89-.75 6.17-3.24 7.68-4.03 2.44-11.26-2.12-12.1-6.82Zm-468.55-6.04c1.09-2.63 1.07-7.57-.49-9.17-1.83-1.86-5.72-3.69-8.06-2.58-2.5 1.18-5.72 4.11-6.83 6.82-1.48 3.61 2.71 7.62 5.36 8.39 3.2.93 8.3.71 10.03-3.46Zm-57.75 20.37c2.14-2.64 3.15-4.2 4.55-4.43 3.9-.66 6.41 3.33 8.78 3 .68-.09 1.93-1.34 1.83-1.98-.42-2.79-2.49-4.01-3.43-6.02-1.75-3.71-4.19-7.73-8.6-7.23.13 2.82.71 5.51-.39 7.26-1.21 1.93-3.22 2.93-5.67 3.7.33-2.79-.96-3.99-2.93-5.3-1.26-.84-2-4.86-.76-6.27 1.89-2.15 5.86-4.29 8.75-4.41 2.82.2 6.06 3.14 9.75 1.57-.22-2.72-2.36-8.13-5.91-8.56-4.2-.51-7.57 3.47-10.79 5.2-4.03 1.82-8.14 2.83-10.36 7.01-4.4-.03-7.02 2.78-11.59 5.03 2.68 4.76 7.95-.18 13.26 9.53l8.07 14.76c.77 1.41 1.57 3.15.7 4.35-.71.97-1.65 1.59-3.63 2.57 5.61 2.88 15.34-4.4 22.57-9.06-.95-4.13-8.09-.27-9.81-5.66-.82-2.59-2.5-4-4.38-5.06Z" class="cls-2"/><path d="m550.1 451.14-.36 19.54c-.05 2.79.77 4.51.72 7.54-.14 9.39 3.89 27.56 7.27 36.93l5.08 14.08c.67 1.87 1.89 3.03 1.1 4.97-.59 1.44-2.53 1.78-3.93 2.87-10.63 8.27-22.75 13.07-36.27 15.73l-8.73 1.72c-6.05 1.19-12.75.3-18.73-1.02l-10.61-2.35-9.97-2.81c-3.92-1.1-6.77-4.38-11.38-3.56-2.17-4.69-7.23-4.79-10.94-7.22l-7.24-4.74c-2.85-1.87-5.11-4.25-7.98-5.79l-4.37-2.34c1.6-1.74 2.96-3.48 3.23-5.61 4-.23.4-5.06 2.06-8.42.17-.33 10.1-3.32 15.88-2.39 8.3 16.07 21.36 27.51 40.16 25.41.84-.09 1.25-1.36.85-2.15-1.3-2.5-11.75-.2-16.42-2.84-9.53-5.38-23-19.11-17.02-26.51-5.64.25-13.23 3.37-15.55 3.51l-9.72.6c-.02-3.85-2.15-7.84-1.35-12.24 5.4-4.82 11.86-7.64 17.98-11.21l9.46-5.53 7.14-4.65c.45-.29 13.66-6.26 14.44-6.51 6.57-2.13 12.27-4.71 18.82-7.26l12.95-5.04 17.76-5.54c7.5-2.34 15.24-6.29 17.69-2.31-.64 1.6-1.99 3.65-2.02 5.13Zm-59.47 31.44 12.32-7.42-.81-1.16-15.36 7.72c.13 1.15 1.28 1.82 1.99 1.75.48-.05 1.02-.39 1.87-.89Zm-19.53 15.9 8.98-8.71c-.53-.3-1.19-1.24-.54-2.32l-9.96 8.12c-.79.65-2.05 1.34-2.19 2s.7 1.61 1.14 1.6 1.92-.07 2.57-.7Zm-4.85 2.51c.6-1.19 1.08-2.05.99-2.49-.1-.48-1.43-.83-1.74-.51s-.97.88-.26 2.26c-1.22 1.07.62 2.42 1.02.74Zm66.39 11.66c.19-.98-.92-1.73-1.62-1.17l-6.41 5.09c1.69 2.53 7.74-2.43 8.03-3.92m-21.29 14.41 4.29-3.14.35-1.9-18.45 7.18c2.07 4.09 5.04 2.19 6.95.12l6.87-2.27Zm263.6-103.09c-1.45 1.59-1.49 3.56-1.63 6l-1.89 35.14c-.6 11.15-.62 21.72.23 32.86.92 12.07.16 29.24 10.44 36.43 8.24 5.76 15.02 1.3 20.98-6.11 5-12.08 7.05-24.25 6.75-37.26l1.07-18.53-16.78-.37c-2.29-.05-3.52-1.78-3.38-4.12l1.33-21.97c.11-1.81 3.28-2.58 4.86-2.53l43.47 1.25c-.55 11.32 2.44 17.94-.04 30.81-.8 4.14-.31 8.05-.81 12.34l-1.76 15.06c-.92 7.85-1.46 16-4.16 23.53l-3.13 8.73-4.46 8.72c-4.67 9.11-11.9 14.81-20.98 19.28-15.68 7.73-34.88 3.37-46.55-8.87-3.8-3.99-7.03-7.09-8.66-12.63-1.75-5.97-5.3-11.96-5.17-18.72l.37-20.01.93-19.08 1.03-24.99c.29-7.14 1.36-13.75.04-21l-.03-11.23c1.31.47 1.98-.27 1.81-1.27l-.61-3.53c2.63-1.63 7-1.23 10.3-.55 8.73 1.79 15.17-1.27 16.4 2.61Zm-61.95-.02-2.79 54.48c-.34 6.38-4.07 12.76-6.19 18.42s-5.83 9.4-8.95 14.06c-8.93 13.33-23.85 20.34-40.15 18.57l-2.35 43.39-11.03-7.32c-5.86-3.89-10.93-8.19-15.73-13.57-1.84-2.06-1.15-5.55-.4-8.49l5.35-115.26 3.45-.63c.52-.09 1.18-.64.83-1.63 3.23.63 6.43-.72 10.04-.87l10.27-.42c1.39-.46 4.21-.06 4.1 2.34l-3.21 73.79c8.75 2.18 19.17-4.37 21.33-10.09l2.38-6.35c4.44-11.81 3.47-24.33 4.01-36.36 1.55-1.15 1.4-3.77.23-5.19.07-1.52.28-3.05.07-4.57.22-.33.59-.88.61-1.26l-.03-7.87v-1.01l-.11-2.3c-.25-1.15-.1-3.48.9-3.63l4.05-.63 20.88-.51c.49 1.67 1.39 2.86 2.4 2.91Z" class="cls-2"/><path d="M901.29 440.13c2.3 3.84 3.2 7.94 2.85 12.92l-2.04 29.16-2.31 11.63-2.39 8.73c-3.41 12.47-8.87 23.28-15.51 34.42-11.14 18.66-25.78 34.55-43.08 47.88l-7.19 4.91c-1.97 1.34-4.55 4.08-6.29 5.12l-24.87 12.77c-9.6 4.93-20.56 8.19-31.58 10.4l-7.86 1.58-9.54 1.67-10.47 1.52-19.67.57c-3.68.11-5.45-.23-8.83-.59l-22.29-2.41-10.24-2.42-7.87-2.21c-11.34-2.15-21.29-7.25-31.18-12.62l-13.05-7.09c-6.51-3.54-11.92-8.4-17.74-13.07-14.47-11.64-30.93-32.54-39.1-49.28l-4.92-10.09c-1.36-2.78-2.04-4.9-2.93-8.09l-5.16-18.49-1.57-8.14-1.19-14.04.55-26.12c.05-2.38-.18-4.49 1.7-6.56 1.53-1.68 3.24-1.57 5.89-2.09 2.18-.43 4.51-1.85 6.51-.51.44 4.36.1 7.56-1.23 11.02-2.33 6.08.14 12.92.06 19.26-.1 8.43-.4 15.57 3.06 23.43l-.04 6.71 3.51 10.84c5.21 13.07 11.15 25.79 19.74 37 11.71 15.29 24.99 29.14 41.64 38.29l14.77 8.12 12.03 5.18c17.21 7.41 35.63 10.63 54.38 10.75l5.25 1.07 14.04-.22 5.02-1.56c6.77-.27 12.95-1.13 19.6-2.63l12.25-2.76c9.72-2.19 18.57-5.85 27.26-10.77l7.62-4.32c2.1-1.19 5.14-3.75 7.08-4.34 4.56-1.39 6.39-3.55 9.59-5.86 3.62-2.61 7.12-4.52 10.61-7.65 13.95-12.52 27.35-26.05 35.68-43.15 3.82-7.84 8.3-13.59 11.31-24.5l4.78-17.32c2.72-15.98 2.17-31.87 1.86-47.92 4.26-1.23 8.51-.14 11.47 1.86Z" class="cls-2"/><path d="M622.81 427.86c1.26.13 2.45-.02 4.11.44l-5.13 109.63c-.25 5.36-1.81 10.52-.03 15.5 1.78 2.65 5.55 5.61 7.92 7.57l5.66 4.67c6.49 5.36 13.63 9.88 21.93 13.99l.21-16.49c1.25-4.6 1.67-7.48.82-12.38-.92-5.25-.08-11.29.49-16.85l16.4-2.67c5.43-.88 19.15-11.44 23.93-19.15l6.04-9.75c1.15-1.85.99-4.13 4.41-4.61l-4.09 96.69c11.78 2.5 23.52 1.72 35.37.29l1.24-21.76.89-19.04c.21-4.55.14-9.1 1.82-13.63 3.9 8.39 8.06 16.84 15.62 21.11l9.6 5.43c22.8 12.88 57.14-5.46 64.94-32.83l5.98-20.96 1.63-15.74c.39-3.73 1.31-6.54 1.47-10.38L845.1 461c.27-6.68 1.82-12.91-.56-19.77l-44.52-1.16c-4.11-.11-7.54 1.89-12.32.52 1.16 5.77-.98 9.73-.92 14.42l.32 22.14c6.92-1.03 12.8-2.08 19.8-.9l-1.46 22.53c-.25 3.81-1.56 7.06-1.63 11.15-.15 8.39-3.34 16.7-9.8 22.14-2.57 2.16-7.11 1.41-9.99-.34-5.04-3.07-7.66-17.11-8.18-25.68l-1.01-16.75 2.49-62.45c1.87-.68 1.71-2.54 2.07-4.71.24-1.5 4.16-1.62 5.34-.61l.28 11.54c3.35-.65 6.43 1.03 9.04 1.06l26.86.3 26.05.35c1.95.03 3.3-.88 4.44.31 1.39 1.46 1.25 2.62 1.14 4.68l-2.98 57.37c-.24 4.69-1.18 8.76-2 13.85l-1.29 7.98c-.41 2.56-1.8 6.23-2.49 8.93-3.05 11.96-9.03 22-16.39 31.48-1.84 2.37-2.29 2.67-4.77 4.39-9.43 6.55-19.46 12.73-31.69 12.03l-14.92-.86c-3.26-.19-5.09-1.19-7.59-2.33-7.37-3.37-14.17-6.42-18.97-13.3l-1.38 19.67c-.52 7.38.54 14.65-2.48 21.64l-12.71.39c-6.67.2-13.49 2.36-19.78-.13l-13.95-1.95c-.97-4.35.53-8.64.64-12.92l.48-18.75c1.28-8.45.64-16.67.12-25.09 2.21-4.49 1.98-12.98.68-18.93.99-1.33 2.39-2.44 1.3-4.89-2.59 3.68-6.16 5.77-9.36 8.7-15.66 14.37-31.83 8.62-27.79 15.28l-1.76 12.86-.81 20.67-.72 12.21-13.14-5.91-23.93-16.1-9.24-9.65c-1.96-3.9-.04-10.06.07-14.3l.36-15.1 1.19-22.84 3.47-72.12c.11-2.39.72-3.1 2.07-4.19Zm173.03 89.38c.54-3.73 2.02-7.06 2.19-11.28l.91-22.57-17.76-.25.68 13.77c.54 10.82-.35 23.18 7.22 30.4 4.29-1.55 6.19-6.18 6.76-10.06ZM342.8 576.16l-10.12 6.31-8.27 5.11c-2.11 1.31-6.27 4.31-8.32 2.68-2.62-3.12 1.74-7.16 1.98-9.75.28-2.92 1.8-4.22 2.88-6.57l14.18-30.77-6.33-1.02c-11.95-.15-23.46-.03-34.7-1.32 2.05-6.52 13.23-11.53 20.26-16.43l17.04-11.86 33.67-21.55c3.41-2.19 6.15-4.22 9.97-6.16 2.1-1.06 3.47-4.57 6.87-3.47l-.14 13.68c-.06 5.42 1.94 10.95 6.51 13.66 13.66 8.11 21.14 4.68 33.97-4.66l9.7 7.64c2.93 2.31.29 7.44-2.94 9.45l-21.65 13.43c-5.37 3.33-10.54 6.46-15.89 10.08l-9.49 6.42-29.72 19.07c-3.23 2.07-6.02 3.89-9.46 6.04Zm22.74-56.34-6.4-1.66c.69 2.68 1.67 5.25 3.56 7.26 1.59 1.69 4.25.75 4.8-1.3.31-1.14.44-3.69-1.96-4.31Z" class="cls-2"/><path d="m747.05 426.71.03 11.23c1.31 7.25.25 13.87-.04 21l-1.03 24.99-.93 19.08-.37 20.01c-.12 6.76 3.42 12.74 5.17 18.72 1.62 5.54 4.86 8.64 8.66 12.63 11.67 12.24 30.87 16.59 46.55 8.87 9.08-4.47 16.31-10.17 20.98-19.28l4.46-8.72 3.13-8.73c2.7-7.53 3.24-15.68 4.16-23.53l1.76-15.06c.5-4.28 0-8.2.81-12.34 2.49-12.88-.51-19.5.04-30.81l-43.47-1.25c-1.59-.05-4.75.72-4.86 2.53l-1.33 21.97c-.14 2.33 1.09 4.06 3.38 4.12l16.78.37-1.07 18.53c.3 13.01-1.75 25.18-6.75 37.26-5.97 7.41-12.74 11.87-20.98 6.11-10.28-7.19-9.52-24.36-10.44-36.43-.85-11.14-.83-21.71-.23-32.86l1.89-35.14c.13-2.44.18-4.41 1.63-6 .6.08 1.59.2 2.18.76.49.46.63 1.33.21 2.13l-2.49 62.45 1.01 16.75c.52 8.57 3.13 22.6 8.18 25.68 2.88 1.75 7.42 2.5 9.99.34 6.46-5.44 9.65-13.75 9.8-22.14.07-4.08 1.39-7.33 1.63-11.15l1.46-22.53c-7-1.18-12.88-.13-19.8.9l-.32-22.14c-.07-4.69 2.07-8.65.92-14.42 4.77 1.37 8.21-.63 12.32-.52l44.52 1.16c2.38 6.86.83 13.09.56 19.77l-1.06 25.94c-.16 3.84-1.08 6.64-1.47 10.38l-1.63 15.74-5.98 20.96c-7.8 27.37-42.15 45.71-64.94 32.83l-9.6-5.43c-7.56-4.27-11.72-12.72-15.62-21.11-1.68 4.53-1.61 9.08-1.82 13.63l-.89 19.04-1.24 21.76c-11.85 1.44-23.59 2.21-35.37-.29l4.09-96.69c-3.42.48-3.26 2.75-4.41 4.61l-6.04 9.75c-4.78 7.71-18.5 18.27-23.93 19.15l-16.4 2.67c-.57 5.56-1.41 11.6-.49 16.85.85 4.9.43 7.77-.82 12.38l-.21 16.49c-8.3-4.11-15.44-8.63-21.93-13.99l-5.66-4.67c-2.38-1.96-6.14-4.92-7.92-7.57-1.78-4.99-.22-10.14.03-15.5l5.13-109.63c-1.66-.46-2.84-.31-4.11-.44 1.12-.89 2.04-2.08 3.8-1.9 1.26.13 2.41.62 3.66 1.9 1.41-1.73 3.02-2.25 4.8-1.9.35.99-.31 1.54-.83 1.63l-3.45.63-5.35 115.26c-.76 2.94-1.44 6.43.4 8.49 4.8 5.38 9.87 9.68 15.73 13.57l11.03 7.32 2.35-43.39c16.3 1.78 31.22-5.24 40.15-18.57 3.12-4.66 6.84-8.43 8.95-14.06s5.84-12.03 6.19-18.42l2.79-54.48 3.8.2-.79 14.82-.96 24.13-5.37 125.73c3.43 5.07 18.2 3.92 27.87 2.12l5.23-129.72c.2-4.96-.3-8.25.58-13.38 1.27-7.35-2.48-16.24 1.47-22.89l1.92-3.22.3 4.99Z" class="cls-1"/><path d="M744.84 424.94c-3.96 6.65-.21 15.55-1.47 22.89-.88 5.13-.38 8.42-.58 13.38l-5.23 129.72c-9.68 1.81-24.44 2.95-27.87-2.12l5.37-125.73.96-24.13.79-14.82c.05-.94.44-2.32.83-3.03.66-1.18 2.63-1.29 4.35-1.17l21.31 1.38.15 2.93c.03.54.1 1.51 1.39.69Z" class="cls-2"/><path d="M598.01 359.87c-2.03.53-3.93.55-5.97.23 1.16-3.42 3.93-5.81 6.75-8.34l14.63-13.14c2.13-1.91 4.74-2.69 5.96-5.24.66 1.23 1.52 1.4 1.63 1.06l.65-2.06 11.06-7.4c3.89-2.61 7.04-5.14 11.16-6.94l11.87-5.21c16.86-7.4 30.14-11.41 48.08-14.08l9.95-1.48c3.02-.45 5.55-2.13 9.88-.89-.99-5.34-3.45-8.62-6.82-12.07l-2.55-5.46-9.86-14.22c-1.2-1.73-2.63-3.35-1.52-5.31l26.74.99c.81.03 1.61.32 1.86.62s.44 1.25.6 2.83l-24.16.08 26.41 40.24c-4.94.85-6.16-2.84-8.98-3.57-2.38 2.78-5.87.9-8.24 1.33-5.09.93-9.25.62-13.92 1.73l-8.7 2.07c-11.93 1.66-22.26 6.09-33.29 10.4-22.43 8.75-46.62 26.51-63.19 43.82Z" class="cls-1"/><path d="M870.68 356.15c-1.52 1.87-4.41 2.4-6.02.81l-15.5-15.3-14.37-10.49-7.79-5.04c-3.14-2.03-6.08-4.06-9.13-5.41l-19.06-8.47-17.61-5.42-9.29-2.33c-6.55-1.64-12.7-1.23-19.36-3.06-2.47-.68-6.89-.78-9.31-.09-4.26 1.23-5.09 6.08-7.33 9.61-2.22-1.18-3.59-3.27-3.65-5.95 4.88-.14 5.9-3.28 7.72-5.91l7.42-10.72 8.65-11.3c2.13-2.78 3.59-4.56 5.61-7.74.85-1.34 4.3-2.64 2.03-5.36-1.27-1.51-2.75-1.5-5.3-.89-5.09 1.2-15.17.15-13.58-3.86l26.68 1.3c-.95 4.69-4.37 6.9-6.68 10.12l-18.47 25.76 23.03 2.46 10.62 2.33c5.61 1.23 10.5 4.04 16.41 4.69l7.89 3.54c5.03.25 7.6 3.38 11.22 4.95 14.92 6.49 27.28 15.31 39.48 25.73 5.6 4.78 12 10.65 15.73 16.04Z" class="cls-1"/><path d="M681.25 424.32c-1.59 11.95 2.84 22.1-.67 34.11l-2.08 18.27-1.97 6.02c-3.14 9.59-7.59 15.81-17.18 14.21l1.74-16.46c.3-2.84 1.94-5.15 1.94-8.49l-.02-14.99c0-6.83.53-13.14.96-20.06l.66-12.79c.85-.35 2.25-1.56 3.61-1.07.85.31 1.85 1.55 1.81 3.15l-.67 28.24-.7 21.43c-.12 3.67-1.46 7.33.8 9.89 3.1-9.96 3.72-18.21 4.11-27.29l.84-19.42c.24-5.58 1.28-10.95-.21-16.13 3.2-1.84 6.35-1.38 7.03 1.38" class="cls-2"/><path d="m684.78 425.8.12 2.3c-1.07-.04-.98 1.05-.01 1.01l.03 7.87c-.52.17-.68.73-.61 1.26.2 1.52 0 3.05-.07 4.57l-.23 5.19c-.54 12.03.42 24.55-4.01 36.36l-2.38 6.35c-2.15 5.73-12.57 12.27-21.33 10.09l3.21-73.79c.1-2.4-2.72-2.8-4.1-2.34-.18-.77.07-1.27.53-1.47 2.65-1.15 4.07 1.59 6.02 4.9.78-2.81 1.66-3.53 2.71-3.96l-.66 12.79c-.43 6.92-.97 13.22-.96 20.06l.02 14.99c0 3.35-1.64 5.65-1.94 8.49l-1.74 16.46c9.6 1.6 14.04-4.62 17.18-14.21l1.97-6.02 2.08-18.27c3.51-12.01-.92-22.16.67-34.11.34-.84.45-1.65 1.58-2.45l.28 3.15c.05.55.86.92 1.66.79Zm-247.79 93.28.24-12.79 9.72-.6c2.32-.14 9.91-3.26 15.55-3.51-5.98 7.41 7.5 21.14 17.02 26.51 4.67 2.64 15.12.33 16.42 2.84.41.79 0 2.05-.85 2.15-18.8 2.11-31.87-9.34-40.16-25.41-5.78-.92-15.72 2.06-15.88 2.39-1.66 3.36 1.94 8.19-2.06 8.42m310.2-194.23c-2.31.31-2.69-2.5-4.2-3.97-3.6-3.49-10.95-3.87-15.2-1.23-10.13 6.29-11.31 18.88-5.68 28.22-.1.49.7 1.24-.45 2.39-.59-1.41-2.03-2.14-3.26-2.18-4.8-5.39-4.19-13.78-1.3-21.03 3.78-9.48 14.44-14.63 24.5-11.51l4.76 4.16c1.76 1.54 1.06 3.72.83 5.15m1.7 23.97h-4.64c9.63-14.48 2.53-21.43 2.95-23.97.61-.08 1.52-.58 2.33-.32 4.92 1.61 5.13 15.62-.63 24.29Zm147.17-3.42c-4.3 1.7-9.62-.19-10.85-4.36-.8-2.73 1.29-4.91 2.59-5.96 1.89-1.51 4.78-1.61 7.19-1.08 2.68.59 3.86 2.71 4.08 4.53.34 2.69.1 5.63-3.01 6.86Zm-107.78-62.92h-4.99c-2.55 0-3.45-3.13-3.42-4.99s.35-5.23 2.87-5.52l6.39-.74c3.48-.4 4.75 3.47 4.81 6.23s-2.12 5.01-5.66 5.01Zm58.92 24.07c-3.41 1.75-8.6-1.01-8.71-4.69-.14-4.53 1.44-6.59 5.23-7.63 3.22-.89 5.94.21 7.46 4.07 1.17 2.97-.02 6.21-3.98 8.24Zm-217.82-.92c-3.39.72-6.58.37-8.06-2.21-1.28-2.24-2.11-4.6-.81-6.44 2.16-3.04 5.01-3.67 8.58-2.93 2.95.61 3.84 3.08 3.95 5.46.12 2.51-.29 5.41-3.65 6.12Zm55.35-35.08c4.84.88 8.71 2.41 9.01 5.99s-6.54 8.81-10.35 6.48c-2.94-1.8-5.48-5.98-2.82-8.52l4.16-3.96Zm-115.36 67.56c2.47-.63 3.36-2.07 4.23-4.73s5.08-1.98 6.8-1c2.78 1.6 3.62 5.26 2.3 8.59-1.14 2.88-4.75 3.17-7.95 2.83-2.02-.22-3.89-3.17-5.38-5.69m170.8-78.56c.2 2.75-.62 3.83-2.66 3.54-3.23-.46-3.1-7.57-1.99-8.15.78-.4 2.87-.17 3.65.42s.85 2.05 1 4.19" class="cls-1"/><path d="M910.42 602.99c-3.89 4.04-7.46 7.12-10.54 11.65-1.01 1.49-2.52 3.56-3.53 3.38-3.51.74-4.13-1.7-3.88-4.05-3.9 1.73-4.73 5.56-2.27 6.52 1.66 1.42-1.35 3.15-2.5 4.05l-16.67 13.06c-30.31 20.2-63.69 34.29-100 40.75l-7.05 1.26-14.74 1.67-9.49 1.27c-6.16.82-12.41-.05-18.7-.27.41-2.63 1.08-4.03-.18-6.56-2.05 5.92-5.56 7-10.9 6.6l-13.05-.97-18.48-1.9-8.35-1.85-9.62-2.25-13.82-3.16c-22.57-7.97-44.01-17.72-63.55-31.31-4.72-3.29-8.41-6.84-13.41-9.78l-12.39-11.43c-.98-.91-2.45-.95-2.49-2.17-.08-2.94 4.41-2.88 2.98-5.9-1.2-2.55-4.63 1.68-7.2 1.3-3.76-.56-4.56-6.71-6.75-7.55-2.45-.93-2.58-3.81-3.92-5.11-5.8-5.6-10.02-11.35-14-18.16l-9.25-15.87c-1.39-2.38-2.88-4.06-1.43-7.49 4.12 1.04 7.99.38 11.87-.74l11.28-3.26c2.71-.78 4.58-2.71 6.31-3.47 4.92-1.46 7.41-3.22 11.67-5.93l9.96-6.34 4.66 2.8c-1.59 3.55 5.03 11.44 9.18 16.97l4.73 6.3c9.2 12.26 29.83 30.51 43.31 36.67l11.26 6.69c12.73 7.56 26.85 11.05 41.01 15.14l9.32 1.62c4.17.73 6.98 1.82 11.27 1.95 11.18.35 22.19 2.11 33.27.26l14.63-.57c3.94-.15 8-.63 12.07-.21 1.63-1.87 3.41-3.85 6.59-4.13l12.36-1.12c3.33-2.31 7.31-3.97 11.96-5.03 5.17-1.18 10.42-3.79 15.19-6.2l14.65-7.38c6.63-3.34 12.07-7.55 18-11.81 4.23-3.04 8.41-5.27 12.15-9.06l12.39-12.55 9.52-10.48 11.11-15.1c4.16.54 6.68 3.39 9.65 5.55 8.46 6.17 17.7 10.37 27.83 13.21l14.1 1.78c2.58 2.52-.88 5.48-1.96 7.06l-9.44 13.89c-1.78 2.61-3.33 5.73-6.22 7.73-2.12 1.46-2.59 3.89-3.97 5.32zm-338.06-15.28c-3.85-3.23-7.36-3.32-10.05-.37-1.99 2.18-3.24 3.93-2.12 6.92.64 1.73 2.49 2.78 4.83 4.01 2.94 1.55 5.48-.46 7.37-2.6 1.75-1.98 2.06-6.21-.02-7.96Zm315.61 2.15c-4.68-1.36-9.17-.32-11.14 4.3-.94 2.21.74 7.15 3.27 8.68 4.26 2.59 10.67-1.06 11.49-5.51.63-3.45-.46-6.55-3.62-7.47M583.7 624.4c2.91 3.83 7.05 6.65 11.57 8.64 1.77-.38 3.48-1.45 5.22-3.09-2.09-2.4-4.36-.4-5.88-.61-3.69-.51-10.3-5.6-8.64-9.53 2.32-2.01 3.85-6.07 8.14-6.25l4.74 7.79c2.19-2.22 4.08-3.88 5.47-6.33.47-2.09-1.68-2.55-2.01-.38-2.36 1.14-5.98-.57-7.72-2.79 1.16-4.36 4.45-7.67 8.9-10.02-4.17-1.54-6.92-3.84-9.27-7.17-1.1 1.92.38 3.59.28 4.64-.08.88-1.66 1.71-2.48 2.73l-9.42 11.63c-1.73 2.14-2.99 4.06-6.14 4.98 2.58 2.93 5.04 4.39 7.25 5.76Zm284.53.22c2.69-1.6 5.51-2.29 5.75-5.48-2.72.21-5.92.36-8.19-.94l-12.13-6.96c-3.85-2.21-7.58-6.63-12.47-5.25-.88 2.22.53 5.02 1.89 7.25.36.59 1.67.24 2.31-1.15 5.54 6.34 16.47 10.11 16.6 11.64l.39 4.37 5.86-3.48Zm-253.72-14.11c-.7-2.99-4.74-4.17-5.18-2.78-.83 2.64-.59 5.44.19 7.66zm211.63 27.12-13.72-13.15c-.63-.61-1.43-1.15-1.92-1.19-3.24-.21-3.33 10.98-1.93 15.32.86 2.67 1.75 4.98.81 8.04-3.44-1.44-4.28-3.76-6.26-5.98l-7.02-7.84c-.36-.7.31-3.58-1.15-3.75-.71-.08-8.39 2.23-10.04 5.79 2.99-.44 4.31.62 6.06 2.21 5.65 5.14 10.83 10.4 15.21 16.77 1.2.5 3.27.44 4.85-.03l-.34-13.8c-.06-2.44-1.77-3.94-.27-7.76 9.03 4.69 16.31 18.16 19.99 14.3 2.13-2.24-.03-5.56-.04-7.5l-.14-19.87c-.01-1.52 1.04-2.98-.5-3.56-2.95-1.11-3.83 1-7.94 2.09 3.96.94 5.93 2.84 5.99 6.55l.19 11.75c.01.91-.84 1.62-1.81 1.61Zm-207.01-14.51-6.49-2.9c4.07 7.96-2.97 12.53-.31 22.45.9 1.42 3.29.38 4.2-.52 1.49-1.46 4.3-13.43 2.59-19.03Zm14.61 8.14c1.93 2.19 2.67-1.54.37-.69-1.93-1.57-3.43-2.66-5.95-1.98l.16 7.37c1.85-2.11 3.2-3.7 5.42-4.7m218.39 4.29c-.9-1.87-2.46-1.33-3.13-1.52-1.97-.54-2.66.31-3.62 1.7-.61.87-.08 2.91 1.42 2.12 1.79-.95 3.2-2.29 5.33-2.3m-215.27 18.09c3.5 3.55 9.61 4.08 14.77 2.8-2.05-2.97-5.55-.79-7.17-1.6-2.24-1.25-3.67-3.08-5.43-2.21-.78-7.2 3.08-14.58 10.18-16.75-5.18-2.13-9.1-.78-12.6 2.21-2.99 2.56-4.76 6.91-2.78 11.47.54 1.24 2.15 3.2 3.04 4.09Zm19.59-9.28c.11-3.02-2.83-6.3-5.8-7.81-1.24 2.95-1.09 6.26-1.36 9.76 1.01 1.63 7.04 1.25 7.16-1.95m11.6 17.34c.87-9.43 8.98-15.85 2.7-18.95-1.76-.87-3.51-1-5.82-.57 1.64 7.07-2.95 17.34-2.88 17.33l-3.27.96c2.81 1.31 5.56 1.88 9.27 1.23m83.64-12.68c1.39.37 3.11.04 3.27-.55.16-.62.4-2.16-1.04-2.83-.66 2.22-2.06 2.41-3 2.1-1.81-.6-1.86-2.11-1.79-3.84.13-3.21-2.72-1.62-3.85-1.38-2.4.51-1.9 2.42-2.59 3.88-1.37 2.94-.57 3.1-.06 5.88l2.37 12.88c1.91 3.93 8.08 3.2 11.28 1.58-6.65-1.35-6.61-9.83-4.59-17.73Zm-26.06 11.24c2.11 3.32 1.72 7.03-1.62 9.67 4.82 1.32 6.82-1.36 10.51-1.93-2.18-1.59-3.97-.93-6.24-1.31.11-3.03-.41-4.68-1.2-6.7-.71-1.8-.48-4.9.49-6.91.81-1.68 3.39-2.39 6.13-2.66-1.72-2.6-4-1.55-5.81-2.14l-1.14-3.68c-.31-.99-3.89-1.25-4.77-.43-3.47 6.13-1.39 16.72 3.65 16.08Zm-42.4-9.86c1.15-.98.05-3.79-.67-4.79-.79-1.1-4.29-1.53-5.12-.47-1.36 1.74-.16 3.99 1.31 4.59.92.37 2.48 2.37 4.47.68Zm12.01 17.13c4.75 2.98 11.02 2.41 14.69-2.04-2.2-3.34-4.5 3.63-11.17.09-.83-.44-3.25-.38-2.93-2.65l1.68-12.25c1.57-.71 3.32-1.1 3.8-3.28-4.83-.28-10.44 2.81-12.27 7.38-1.25 3.14-.57 5.76.35 8.13 1.12 2.9 3.34 3.03 5.86 4.61Zm10.76-10.4c2.2-.05 4.33.39 4.85-1.7.81-3.24-5.33-9.48-8.27-6.74l2.52 5.84-1.63 1.31c-.69.56-.26 1.35.11 1.34zm16.09 7.82c.02-1.94-2.1-3.65-3.67-2.49-1.71 1.26-1.65 3.67-.84 5.38.67 1.42 1.66 2.99 4.44 2.95l.07-5.85Zm-324.12-299c1.25.14.88 1.48-.21 1.2-2.25.36-1.66-2.04.21-1.2" class="cls-2"/><path d="M426.42 411.04c.8.05 2.64-3.23 2.6-1.47l-.06 2.85c-1.57 1.57-4.98-.04-6.78.42-8.55 2.54-15.88 1.15-23.84-1.27-11.26-3.43-21.98-8.64-29.34-18.05-5.31.07-9.75-2.64-13.76-5.7l-11.41-4.57c-.92-.37-1.01-1.22-.78-1.65 1.61-3.09 10.78 1.96 17.43 4.98 3.25 1.47 5.93 2.75 7.87 6.53l4.75-2.26 9.64 9.38 10.95 6.27c2.64 1.51 6.44 2.84 9.45 3.04l23.29 1.52Zm-112.21 4.65c-.57-4 3.9-2.92 8.54-5.42 3.23 1.92-2.35 5.66-8.54 5.42m30.61-6.61c-3.84 1.53-6.57 1.41-10.23 1.17 2.5-4.11 6.64-3.48 10.23-1.17m-74.817-77.576.502-.503.502.503-.502.502z" class="cls-1"/><path d="M882.93 418.39c-.67 2.91-7.18.82-8.57-1.75l-14.48-26.62c-2.34 1.67-2.74 4.04-3.39 6.69l-2.14 8.76c-1.2 4.9 6.91 5.13 5.29 9.8-.34 1-1.74.72-2.98 0l-16.77-2.59.11-3.07c.07-1.96 6.69 1.36 8.98-7.67 1.77-6.99 4.5-13.43 4.65-20.65-1.16-1.74-3.11-2.86-4.76-4.19-1.43-1.16-.76-2.96.64-3.9 1.48-1 1.73-.28 3.88.44 5.14 1.73 12.31-1.76 16.66 10.04 2.27 6.17 5.62 10.56 9.27 17.03 3.97-1.65 5.24-11.12 2.71-16.98-.65-.33-2.01-.57-2.42-1.01-.68-.73-.87-2.5-.47-3.2.5-.87 10.64-.6 16.98 3.31.58.18 2.34-.65 2.64.89.12.64.33 2.12-.52 2.02-6.85-.81-8.54 4.8-9.86 10.07l-3.01 12.03-2.44 10.56Zm88.46 19.89c.83 4.7 8.07 9.25 12.1 6.82 2.49-1.5 4.14-5.79 3.24-7.68-.97-2.02-2.44-3.14-1.68-5.86l21.95 8.04c-2.6 5.44-9.18-.7-11.58 12.06-10.74 1.49-21.79-.88-30.21-7.86l-3.92-5.38c-1.44-15.32-.72-19.51 10.93-27.9 5.53-3.98 11.32-2.92 17.07-1.14 5.12 1.58 10.22 3 13.76 7.54 2.09-.23 3.66-.09 5.41.81l-4.35 11.37c-.75 1.97-5.2 2.98-6.17.47l-.66-10.2c-2.1-3.51-7.73-6.96-12.04-4.92-11.71 5.53-10.83 13.17-13.85 23.82ZM652.9 404.75c-.41-12.77-4.05-13.9-7.94-19.69-3.49-5.2-6.99-8.59-14.46-10.61 5-5.04 10.78-3.13 16.37-3.92 3.17-.45 7.36-2.83 9.93-.65 2.72 2.31-3.75 3.75-3.72 6.65.02 1.35.8 2.3 1.96 3.47l5.8 5.82c3.3-1.67 3.82-4.08 5.13-7.13.57-1.32 3.06-3.31 1.27-5.13l-2.54-.9c-1.05-.37-1.36-2.05-.7-4.42l18.2.63c-6.58 3.92-9.47 8.27-12.77 13.48-3.61 5.71-6.66 11.43-4.99 18.58.96 4.13 7.19 2.62 7.36 3.6.1.6.31 2.23 0 2.82-.2.39-10.48 1.89-18.73 1.81l-3.59 1.47c-.84.34-2.8-1.42-3.37-2.73 1.34-2.34 3.9-3.08 6.8-3.16Zm-207.81 47.86c1.88 1.06 3.56 2.47 4.38 5.06 1.72 5.4 8.86 1.54 9.81 5.66-7.23 4.66-16.96 11.94-22.57 9.06 1.98-.98 2.92-1.61 3.63-2.57.87-1.19.07-2.93-.7-4.35l-8.07-14.76c-5.31-9.71-10.58-4.77-13.26-9.53 4.56-2.25 7.18-5.06 11.59-5.03 2.23-4.18 6.33-5.19 10.36-7.01 3.23-1.73 6.59-5.7 10.79-5.2 3.55.43 5.69 5.84 5.91 8.56-3.68 1.57-6.92-1.38-9.75-1.57-2.89.12-6.86 2.26-8.75 4.41-1.24 1.41-.5 5.43.76 6.27 1.96 1.3 3.26 2.51 2.93 5.3 2.46-.77 4.46-1.77 5.67-3.7 1.1-1.75.52-4.45.39-7.26 4.42-.5 6.85 3.52 8.6 7.23.94 2 3.01 3.23 3.43 6.02.1.65-1.15 1.89-1.83 1.98-2.36.33-4.87-3.66-8.78-3-1.4.24-2.42 1.79-4.55 4.43Zm127.32-29.62c-12.16-.1-19.89 6.17-30.08 7.63-3.25.47-6.26 2.69-10.05.43l5.77-5.29-5.54-22.31c-1.93-7.78-10.61-4.36-8.35-7.85.61-.94 1.36-1.44 2.84-1.8l18.2-4.43c1.47-.36 3.42.79 3.38 2.56-1.76.1-5.61 2.77-5.11 4.91l3.59 15.41c.59 2.53 1.7 5.9 2.83 8.02 1.98 3.71 7.14 2.74 10.1 1.4 3.48-1.58 5.77-5.14 5.74-9.75-.01-1.85 3.28-3.96 3.73-2.45l2.06 7.04c.58 1.98 2.18 4.34.88 6.47Zm201.73-19.81-3.29 2.92-22.73-.93c-.06-1.7.15-2.93.7-3.97 1.85.43 3.34.28 4.44-.29.98-.51 1.53-2.62 1.62-4.26l1.26-22.56c.32-5.77-6.89-3.04-6.06-8.6l22.91.76c.91.03 2.27.17 2.52.67.3.59.15 1.9.05 2.45-.13.71-1.53.93-2.52.72-2.47-.51-3.81.81-3.97 3.11l-.73 10.73c-2.67 2.08.36 5.36-1.23 14.08-.24 1.34.47 3.62 1.22 4.33.96.9 2.79.66 5.81.85Zm-58.34-7.3c-4.3.37-6.56-.52-8.58-2.7-1.57-1.69-3.15-5-1.59-7.49 1.83-2.92 4.98-5.19 8.53-5.53 4.07-.39 7.36 3.06 8.13 6.85.68 3.36-2.25 8.5-6.49 8.87m217.48 20.79c-.43 4.93-8.63 5.69-11.6 3.04-2.51-2.23-3.85-3.65-3.88-6.21-.04-2.89.99-5.12 3.98-7.17 3.15-2.16 9.3-1.26 12.25 1.72l-.74 8.62Zm-430.44 15.57c-1.73 4.17-6.83 4.39-10.03 3.46-2.65-.77-6.84-4.78-5.36-8.39 1.11-2.71 4.33-5.64 6.83-6.82 2.35-1.11 6.24.72 8.06 2.58 1.57 1.59 1.59 6.54.49 9.17Zm103.77-26.66c-3.01 2.39-9.21 1.99-11.75-1.41-1.5-2.01-1.86-7.06-.09-8.61l4.67-4.08 7.25 1.81c2.64.66 3.47 3.31 3.58 5.18.17 2.8-.61 4.71-3.65 7.12Zm209.99-17.42c1.15 3.26.58 6.3-.69 8.11-1.06 1.51-3.63 2.21-6.05 2.65-4.19.76-7.26-1.35-8.66-4.76s.19-6.88 4.01-9.44c2.85-1.91 10.08-.25 11.38 3.44Z" class="cls-3"/><path d="m511.35 527.06-6.87 2.27c-1.91 2.08-4.88 3.97-6.95-.12l18.45-7.18-.35 1.9-4.29 3.14Zm-40.25-28.58c-.65.63-2.13.69-2.57.7s-1.27-.98-1.14-1.6 1.4-1.35 2.19-2l9.96-8.12c-.65 1.08.01 2.01.54 2.32l-8.98 8.71Zm19.53-15.9c-.84.51-1.38.85-1.87.89-.7.07-1.85-.6-1.99-1.75l15.36-7.72.81 1.16-12.32 7.42Zm42.01 30.07c-.29 1.49-6.34 6.45-8.03 3.92l6.41-5.09c.7-.56 1.81.19 1.62 1.17m-66.39-11.66c-.4 1.69-2.24.33-1.02-.74-.71-1.38-.05-1.94.26-2.26s1.64.03 1.74.51c.09.44-.39 1.3-.99 2.49Z" class="cls-1"/><path d="m683.99 448.01.23-5.19c1.16 1.42 1.32 4.04-.23 5.19m.89-18.89c-.97.04-1.06-1.05.01-1.01v1.01Zm-.58 9.13c-.07-.53.08-1.09.61-1.26-.02.39-.39.93-.61 1.26m111.54 78.99c-.56 3.88-2.47 8.51-6.76 10.06-7.57-7.22-6.68-19.57-7.22-30.4l-.68-13.77 17.76.25-.91 22.57c-.17 4.22-1.65 7.55-2.19 11.28Z" class="cls-3"/><path d="M365.54 519.82c2.4.62 2.27 3.17 1.96 4.31-.55 2.05-3.21 2.99-4.8 1.3-1.89-2.01-2.87-4.59-3.56-7.26l6.4 1.66Z" class="cls-1"/><path d="M826.14 637.63c.9.86 1.65 2.2 4.22 1.44.01 1.94 2.17 5.27.04 7.5-3.68 3.86-10.96-9.6-19.99-14.3-1.5 3.81.21 5.32.27 7.76l.34 13.8c-1.58.47-3.64.54-4.85.03-4.38-6.37-9.56-11.62-15.21-16.77-1.75-1.6-3.07-2.66-6.06-2.21 1.65-3.56 9.33-5.87 10.04-5.79 1.46.17.79 3.04 1.15 3.75l7.02 7.84c1.98 2.21 2.82 4.53 6.26 5.98.93-3.06.05-5.37-.81-8.04-1.4-4.34-1.31-15.53 1.93-15.32.5.03 1.29.58 1.92 1.19l13.72 13.15Zm-240.18-17.82c-1.33 1.16-2.68 1.77-2.27 4.59-2.21-1.36-4.67-2.82-7.25-5.76 3.16-.92 4.41-2.84 6.14-4.98l9.42-11.63c.83-1.02 2.4-1.85 2.48-2.73.1-1.05-1.38-2.73-.28-4.64 2.35 3.33 5.1 5.63 9.27 7.17-4.46 2.35-7.75 5.65-8.9 10.02 1.74 2.22 5.36 3.93 7.72 2.79.33-2.17 2.48-1.71 2.01.38-1.39 2.45-3.27 4.12-5.47 6.33l-4.74-7.79c-4.3.18-5.83 4.24-8.14 6.25Zm282.27 4.81-5.86 3.48-.39-4.37c-.14-1.53-11.06-5.3-16.6-11.64-.64 1.39-1.94 1.74-2.31 1.15-1.36-2.22-2.77-5.03-1.89-7.25 4.9-1.38 8.62 3.04 12.47 5.25l12.13 6.96c2.27 1.3 5.47 1.15 8.19.94-.24 3.19-3.06 3.88-5.75 5.48Zm-116.54 24.4c-2.02 7.9-2.06 16.38 4.59 17.73-3.2 1.62-9.37 2.35-11.28-1.58l-2.37-12.88c-.51-2.78-1.31-2.95.06-5.88.68-1.46.19-3.37 2.59-3.88 1.13-.24 3.97-1.83 3.85 1.38-.07 1.73-.02 3.25 1.79 3.84.94.31 2.34.12 3-2.1 1.44.67 1.21 2.2 1.04 2.83-.16.59-1.88.91-3.27.55Z" class="cls-3"/><path d="M887.97 589.86c3.16.92 4.25 4.02 3.62 7.47-.81 4.45-7.23 8.09-11.49 5.51-2.52-1.53-4.21-6.47-3.27-8.68 1.97-4.62 6.46-5.66 11.14-4.3m-315.61-2.15c2.08 1.75 1.77 5.98.02 7.96-1.89 2.14-4.43 4.15-7.37 2.6-2.33-1.23-4.18-2.28-4.83-4.01-1.12-2.99.13-4.74 2.12-6.92 2.69-2.95 6.2-2.86 10.05.37Z" class="cls-1"/><path d="M668.05 661.7c-3.71.65-6.46.08-9.27-1.23l3.27-.96c-.06.02 4.53-10.25 2.88-17.33 2.31-.44 4.06-.3 5.82.57 6.27 3.1-1.84 9.52-2.7 18.95m30.7 3.88c.75.74 0 1.26-.47 1.32-.75.1-1.97.15-3.05.62-2.52-1.58-4.74-1.71-5.86-4.61-.92-2.37-1.6-4.99-.35-8.13 1.83-4.57 7.44-7.66 12.27-7.38-.49 2.17-2.24 2.57-3.8 3.28l-1.68 12.25c-.31 2.27 2.1 2.21 2.93 2.65Zm-79.62-42.46c1.71 5.6-1.11 17.57-2.59 19.03-.91.9-3.3 1.94-4.2.52-2.67-9.92 4.37-14.48.31-22.45l6.49 2.9Zm19.9 29.51-2.17 1.01c-.88-.9-2.5-2.86-3.04-4.09-1.98-4.56-.21-8.9 2.78-11.47 3.49-2.99 7.42-4.34 12.6-2.21-7.09 2.18-10.96 9.55-10.18 16.75Zm88.05 7.37-1.45.26c-5.03.64-7.11-9.95-3.65-16.08.87-.81 4.46-.56 4.77.43l1.14 3.68c1.82.59 4.09-.47 5.81 2.14-2.74.27-5.32.98-6.13 2.66-.97 2.01-1.2 5.1-.49 6.91" class="cls-3"/><path d="M830.36 639.06c-2.57.76-3.32-.57-4.22-1.44.98 0 1.83-.7 1.81-1.61l-.19-11.75c-.06-3.71-2.03-5.61-5.99-6.55 4.11-1.09 4.99-3.19 7.94-2.09 1.54.58.49 2.04.5 3.56l.14 19.87Z" class="cls-1"/><path d="M656.45 644.36c-.12 3.2-6.15 3.58-7.16 1.95.27-3.5.11-6.81 1.36-9.76 2.98 1.51 5.92 4.78 5.8 7.81M706 657.13l-2.42.05c-.37 0-.8-.78-.11-1.34l1.63-1.31-2.52-5.84c2.94-2.74 9.08 3.51 8.27 6.74-.52 2.09-2.66 1.65-4.85 1.7" class="cls-3"/><path d="M585.96 619.81c-1.66 3.93 4.95 9.02 8.64 9.53-.88 1.38-.4 2.78.66 3.69-4.52-1.99-8.66-4.81-11.57-8.64-.41-2.82.93-3.43 2.27-4.59Zm136.13 45.14-.07 5.85c-2.77.03-3.77-1.53-4.44-2.95-.81-1.71-.87-4.12.84-5.38 1.57-1.16 3.7.55 3.67 2.49Zm3.54-4.69 1.45-.26c.8 2.02 1.32 3.67 1.2 6.7 2.27.38 4.06-.27 6.24 1.31-3.69.57-5.69 3.25-10.51 1.93 3.34-2.64 3.73-6.35 1.62-9.67Zm-30.39 7.27c1.08-.47 2.29-.52 3.05-.62.47-.06 1.22-.59.47-1.32 6.68 3.53 8.98-3.43 11.17-.09-3.67 4.45-9.94 5.02-14.69 2.04Z" class="cls-1"/><path d="M683.23 650.4c-1.99 1.69-3.55-.31-4.47-.68-1.47-.6-2.67-2.85-1.31-4.59.82-1.05 4.33-.63 5.12.47.72 1 1.81 3.81.67 4.79Z" class="cls-3"/><path d="M633.74 631.26c-2.22 1-3.57 2.59-5.42 4.7l-.16-7.37c2.53-.67 4.02.41 5.95 1.98 2.3-.85 1.56 2.88-.37.69m3.12 22.38 2.17-1.01c1.76-.87 3.19.96 5.43 2.21 1.62.81 5.12-1.37 7.17 1.6-5.16 1.28-11.27.75-14.77-2.8m-22.35-43.13-4.99 4.88c-.78-2.22-1.02-5.02-.19-7.66.44-1.39 4.48-.22 5.18 2.78" class="cls-1"/><path d="M595.27 633.03c-1.06-.92-1.54-2.32-.66-3.69 1.52.21 3.8-1.79 5.88.61-1.74 1.64-3.45 2.71-5.22 3.09Z" class="cls-3"/><path d="M852.13 635.55c-2.14.01-3.54 1.35-5.33 2.3-1.5.79-2.03-1.25-1.42-2.12.96-1.38 1.65-2.24 3.62-1.7.67.18 2.23-.35 3.13 1.52" class="cls-1"/></svg>